<?xml version="1.0" encoding="UTF-8"?>
<svg xmlns="http://www.w3.org/2000/svg" id="visa-master" version="1.1" viewBox="0 0 2500 1553">
  <defs>
    <style>
      .st0 {
        fill: #fff;
      }

      .st1 {
        fill: #3bee81;
      }
    </style>
  </defs>
  <path class="st0" d="M271.5,307.6c-12.1-12.1-24.1-21.1-39.2-30.2-12.1-6-30.2-9-48.2-9s-36.2,3-48.2,9c-15.1,6-27.1,15.1-36.2,27.1-9,12.1-15.1,27.1-21.1,42.2s-6,30.2-6,48.2,3,33.2,9,48.2,12.1,27.1,24.1,39.2c12.1,12.1,21.1,21.1,36.2,27.1,15.1,6,30.2,9,48.2,9s36.2-3,48.2-9c12.1-6,27.1-18.1,36.2-30.2l48.2,48.2c-18.1,18.1-39.2,33.2-60.3,42.2-24.1,9-48.2,12.1-75.4,12.1s-54.3-3-75.4-15.1c-21.1-9-42.2-21.1-60.3-39.2-18.1-18.1-30.2-36.2-39.2-57.3C3.1,446.3,0,419.2,0,392s6-54.3,12.1-75.4c9-24.1,21.1-42.2,39.2-60.3s36.2-30.2,60.3-39.2c24.1-9,48.2-15.1,75.4-15.1s51.3,6,75.4,15.1,45.2,24.1,63.3,42.2l-54.3,48.2ZM395.1,0h66.3v268.4h3c9-18.1,24.1-33.2,45.2-45.2s45.2-18.1,72.4-18.1,33.2,3,48.2,9c15.1,6,30.2,12.1,42.2,24.1s21.1,24.1,27.1,42.2c6,18.1,12.1,39.2,12.1,60.3v229.2h-66.3v-211.1c0-18.1-3-30.2-6-42.2s-12.1-21.1-18.1-27.1c-12.1-9-18.1-15.1-30.2-18.1-9-3-21.1-6-30.2-6-15.1,0-27.1,3-39.2,6s-24.1,12.1-30.2,21.1c-9,9-15.1,21.1-21.1,36.2s-6,33.2-6,54.3v183.9h-66.3L395.1,0ZM829.3,256.3c18.1-18.1,42.2-30.2,66.3-39.2,24.1-9,48.2-12.1,75.4-12.1s48.2,3,66.3,9c18.1,6,33.2,15.1,45.2,27.1,12.1,12.1,21.1,24.1,27.1,39.2s9,30.2,9,45.2v217.1c0,9,0,21.1,3,30.2h-60.3c0-18.1-3-36.2-3-54.3-15.1,24.1-33.2,39.2-54.3,48.2-21.1,9-45.2,15.1-72.4,15.1s-33.2-3-48.2-6-27.1-12.1-39.2-21.1c-12.1-9-21.1-21.1-27.1-33.2-6-12.1-9-30.2-9-45.2,0-24.1,6-42.2,15.1-57.3s24.1-27.1,42.2-39.2c18.1-9,39.2-18.1,63.3-21.1,24.1-3,48.2-6,75.4-6h51.3v-15.1c0-18.1-9-39.2-21.1-51.3-6-9-15.1-12.1-27.1-18.1-9-3-24.1-6-36.2-6s-24.1,0-33.2,3-21.1,3-27.1,6c-9,3-15.1,9-21.1,12.1-6,6-12.1,9-18.1,15.1l-42.2-42.2h0ZM1019.3,398.1c-15.1,0-33.2,0-48.2,3l-45.2,9c-12.1,3-24.1,12.1-33.2,21.1-9,9-12.1,21.1-12.1,33.2,0,21.1,6,36.2,21.1,45.2,15.1,9,33.2,15.1,57.3,15.1s33.2-3,48.2-9c12.1-6,24.1-15.1,30.2-24.1,9-9,15.1-21.1,18.1-33.2,3-12.1,6-24.1,6-36.2v-24.1h-42.2ZM1230.4,214.1h66.3v54.3c9-18.1,24.1-33.2,45.2-45.2s45.2-18.1,72.4-18.1,33.2,3,48.2,9c15.1,6,30.2,12.1,42.2,24.1s21.1,24.1,27.1,42.2,9,39.2,9,60.3v229.2h-66.3v-211.1c0-18.1-3-30.2-6-42.2-6-12.1-9-21.1-18.1-27.1-3-9-12.1-15.1-21.1-18.1s-21.1-6-30.2-6c-15.1,0-27.1,3-39.2,6s-24.1,12.1-30.2,21.1c-9,9-15.1,21.1-21.1,36.2s-6,33.2-6,54.3v183.9h-66.3l-6-352.8h0ZM2023.5,566.9c0,27.1-6,51.3-15.1,75.4-9,21.1-21.1,42.2-39.2,57.3-18.1,15.1-36.2,30.2-60.3,39.2s-51.3,15.1-81.4,15.1-66.3-6-93.5-15.1c-27.1-9-54.3-27.1-81.4-48.2l45.2-57.3c18.1,18.1,36.2,33.2,57.3,42.2s45.2,15.1,69.4,15.1,45.2-3,63.3-12.1c15.1-6,30.2-18.1,39.2-27.1,9-9,18.1-24.1,21.1-39.2s6-30.2,6-45.2v-54.3h-3c-12.1,21.1-30.2,39.2-54.3,48.2-21.1,9-45.2,15.1-69.4,15.1s-51.3-6-72.4-15.1-42.2-21.1-57.3-39.2c-15.1-18.1-30.2-36.2-36.2-57.3-9-24.1-15.1-48.2-15.1-72.4s3-51.3,12.1-72.4c9-21.1,21.1-42.2,36.2-60.3s36.2-30.2,57.3-39.2,48.2-15.1,75.4-15.1,48.2,6,69.4,15.1c24.1,9,42.2,24.1,54.3,45.2h3v-51.3h66.3l3,352.8ZM1836.5,265.4c-18.1,0-33.2,3-48.2,9s-27.1,15.1-36.2,27.1-18.1,24.1-24.1,39.2-9,33.2-9,51.3c0,36.2,9,66.3,30.2,87.5s51.3,33.2,84.4,33.2,66.3-12.1,84.4-33.2c21.1-21.1,30.2-51.3,30.2-87.5s-3-36.2-9-51.3c-6-15.1-12.1-27.1-24.1-39.2-9-12.1-24.1-21.1-36.2-27.1-9-3-24.1-9-42.2-9h0ZM2189.3,416.1c0,15.1,3,30.2,9,42.2,6,12.1,15.1,24.1,27.1,33.2,12.1,9,24.1,15.1,39.2,21.1s30.2,6,45.2,6,39.2-6,54.3-15.1,30.2-24.1,42.2-39.2l51.3,39.2c-36.2,48.2-90.5,72.4-156.8,72.4s-54.3-6-75.4-15.1-42.2-21.1-57.3-39.2c-15.1-18.1-27.1-36.2-36.2-60.3-9-24.1-12.1-48.2-12.1-75.4s6-51.3,15.1-75.4c9-21.1,21.1-42.2,39.2-60.3,15.1-18.1,36.2-30.2,57.3-39.2,24.1-9,48.2-15.1,72.4-15.1s57.3,6,81.4,18.1,39.2,24.1,54.3,42.2c15.1,18.1,24.1,39.2,30.2,60.3s9,45.2,9,69.4v24.1h-289.5v6h0ZM2403.4,361.9c0-15.1-3-27.1-6-42.2-3-12.1-12.1-24.1-18.1-33.2-9-9-21.1-18.1-33.2-21.1-12.1-6-27.1-9-45.2-9-45.2,0-84.4,27.1-102.5,66.3-6,12.1-9,24.1-9,36.2h214.1v3Z"></path>
  <path class="st1" d="M1155,1553c-51.3,0-99.5-9-144.7-27.1-45.2-18.1-81.4-42.2-111.6-75.4s-57.3-72.4-72.4-114.6c-18.1-45.2-27.1-90.5-27.1-141.7s9-99.5,27.1-141.7c18.1-45.2,42.2-81.4,72.4-114.6,30.2-33.2,69.4-57.3,111.6-75.4,45.2-18.1,90.5-27.1,144.7-27.1s99.5,9,144.7,27.1,81.4,42.2,111.6,75.4c30.2,33.2,54.3,69.4,72.4,114.6,18.1,45.2,27.1,90.5,27.1,141.7s-9,99.5-27.1,141.7c-18.1,45.2-42.2,81.4-72.4,114.6s-69.4,57.3-111.6,75.4-93.5,27.1-144.7,27.1ZM1155,1465.5c39.2,0,75.4-6,105.5-21.1s57.3-33.2,81.4-57.3c24.1-24.1,39.2-54.3,51.3-87.5,12.1-33.2,18.1-69.4,18.1-105.5s-6-72.4-18.1-105.5c-12.1-33.2-30.2-60.3-51.3-87.5-24.1-24.1-51.3-45.2-81.4-57.3-30.2-15.1-66.3-21.1-105.5-21.1s-75.4,6-105.5,21.1-57.3,33.2-81.4,57.3-39.2,54.3-51.3,87.5c-12.1,33.2-18.1,69.4-18.1,105.5s6,72.4,18.1,105.5,30.2,60.3,51.3,87.5c24.1,24.1,51.3,45.2,81.4,57.3,30.2,15.1,66.3,21.1,105.5,21.1ZM54.3,850.4h120.6l376.9,560.9h3v-560.9h93.5v684.5h-117.6L147.8,974v560.9H54.3M1574.2,850.4h96.5l150.8,545.8h3l159.8-545.8h105.5l159.8,545.8h3l150.8-545.8h96.5l-199,684.5h-96.5l-165.9-557.9h-3l-165.9,557.9h-96.5"></path>
</svg>
