<?xml version="1.0" encoding="UTF-8"?>
<svg xmlns="http://www.w3.org/2000/svg" id="Layer_1" viewBox="0 0 1667.23 563.76">
  <defs>
    <style>.cls-1{fill:#264ce6;}.cls-1,.cls-2,.cls-3,.cls-4,.cls-5,.cls-6,.cls-7,.cls-8,.cls-9,.cls-10,.cls-11,.cls-12,.cls-13,.cls-14,.cls-15,.cls-16{fill-rule:evenodd;}.cls-2{fill:#264ae0;}.cls-3{fill:#fff;}.cls-4{fill:#2952f7;}.cls-5{fill:#2a54fe;}.cls-17,.cls-12{fill:#333;}.cls-6{fill:#2448d9;}.cls-7{fill:#2346d4;}.cls-8{fill:#2244cf;}.cls-9{fill:#2448da;}.cls-10{fill:#2446d4;}.cls-11{fill:#274eeb;}.cls-13{fill:#2244ce;}.cls-14{fill:#264ce5;}.cls-15{fill:#254ae0;}.cls-16{fill:#2850f1;}</style>
  </defs>
  <rect class="cls-17" width="1667.23" height="563.76" rx="129.04" ry="129.04"></rect>
  <path class="cls-5" d="M596.46,270.37c21.7,29.01,51.02,44.42,86.68,48.25,13.04,1.4,13.07,1.11,13.07,14.06,0,13.1-.35,26.2.15,39.28.26,6.69-2.35,8.09-8.35,7.69-47.28-3.2-88.56-20.04-122.8-53.27-1.92-1.87-3.37-4.96-6.98-4.15-2.37-1.12-3.62-3.38-5.34-5.17-2.45-3.47-5.07-6.81-7.78-10.08-7.93-11.23-15.89-22.44-21.88-34.88-19.32-27.53-46.72-41.75-79.02-47.73-6.53-1.21-15.5.54-19.17-3.19-4.32-4.39-1.22-13.38-1.37-20.36-.22-9.6.46-19.26-.22-28.81-.55-7.63,1.86-9.79,9.46-9.3,46.5,3.04,86.82,20.1,120.77,52.09,2.08,1.96,4.27,3.8,6.41,5.7,3.84,1.27,6.38,4.13,8.77,7.19,1.77,2.91,4.07,5.41,6.15,8.09,7.78,11.15,15.93,22.07,21.46,34.61h0Z"></path>
  <path class="cls-3" d="M743.58,269.42c0-21.44.18-42.88-.12-64.32-.08-5.79,1.44-7.72,7.49-7.58,17.59.41,35.2-.05,52.8.19,35.13.47,54.3,33.71,36.68,63.98-2.49,4.27-1.36,5.73,1.46,8.44,13.43,12.9,16.9,28.62,10.07,45.59-6.88,17.08-20.72,25.5-39.1,25.72-20.8.24-41.6-.12-62.4.18-5.43.08-7.07-1.42-6.99-6.91.3-21.76.12-43.52.12-65.28h0ZM1087.85,238.66c8.01,0,16.01.04,24.02-.02,3.05-.02,6.49.05,5.41,4.28-1.82,7.12,5.27,16.2-4.9,21.63-2.02,1.08.45,3.38,1.09,5.02,6.65,17.29,5.44,33.79-4.81,49.43-1.47,2.24-3.25,3.64-.76,7.2,18.3,26.2,7.05,59.83-23.56,71.58-31.02,11.91-66.31-9.42-69.21-41.48-.52-5.76.94-7.45,6.4-6.89,3.51.36,7.05.36,10.55,0,7.53-.78,11.86.57,14.92,9.34,5.13,14.68,26.73,16.85,36.66,4.88,6.79-8.19,4.47-16.82-5.43-20.41-4.3-1.56-8.73-1.66-13.23-1.79-27.85-.8-49.35-22.34-50.34-50.3-.93-26.42,19.17-49.29,46.32-51.93,8.87-.86,17.9-.13,26.86-.13,0-.14,0-.28,0-.42h0ZM1244.5,341.48c-10,0-19.83-.17-29.64.08-4.2.11-5.29-2.91-6.93-5.53-7.27-11.63-14.5-23.3-22.72-36.52-7.63,12.26-15.05,23.49-21.68,35.17-3.12,5.49-6.79,7.37-12.94,6.95-8.18-.56-16.42-.14-26.04-.14,13.42-21.56,25.95-42.18,39.05-62.44,3.43-5.31,3.62-8.9.08-14.34-13.06-20.06-25.45-40.55-39.12-62.53,11.55,0,21.86-.06,32.17.04,3.56.04,4.37,3.38,5.83,5.69,7.51,11.81,14.9,23.7,22.68,36.12,7.77-12.45,15.27-23.91,22.11-35.75,2.8-4.84,6.07-6.54,11.51-6.25,8.23.44,16.51.12,24.6.12,1.74,3.58-.9,5.28-2.1,7.22-11.39,18.48-22.68,37.03-34.56,55.2-3.47,5.31-3.65,9-.15,14.35,11.53,17.64,22.51,35.63,33.59,53.55,1.61,2.6,4.13,4.85,4.28,9.02h0ZM911.76,290.42c0-14.4.55-28.83-.22-43.19-.41-7.73,2.4-9.77,9.14-8.55,7.45,1.35,15.81-3.46,22.58,3.44.66.68,3.5-.74,5.31-1.26,28.29-8.01,56.05,6.25,54.6,41.71-.69,16.93-.32,33.92,0,50.88.11,5.8-.81,8.29-7.65,8.24-22.26-.18-22.26.17-22.26-22.13,0-12.48.08-24.96-.02-37.44-.09-11.13-5.88-18.05-15.17-18.43-9.6-.39-16.23,6.6-16.42,18.26-.28,17.28-.23,34.56.02,51.84.08,5.27-.45,7.87-7.02,7.9-22.88.11-22.88.43-22.88-22.46v-28.8Z"></path>
  <path class="cls-5" d="M600.06,189.48c27.27-17.55,57.45-25.3,89.54-26.79,4.79-.22,6.81,1.07,6.71,6.32-.3,15.97-.19,31.94-.05,47.92.03,3.94-1.09,5.64-5.37,5.78-16.75.54-32.66,5-48.2,10.96-4.74-4.01-7.16-9.73-10.69-14.63-6.66-9.24-15.27-16.25-24.67-22.43-2.9-1.9-6.38-3.2-7.27-7.14h0ZM518.36,353.31c-27,17.46-57.19,24.11-88.72,26.33-4.54.32-6.17-1.25-6.11-5.9.22-15.97.24-31.94-.01-47.9-.08-4.87,1.27-6.69,6.39-6.73,16.51-.14,32.07-4.78,47.23-10.94,4.85,2.13,6.01,7.22,8.7,11.04,7.02,9.93,14.36,19.45,25,25.9,3.21,1.94,6.56,4.05,7.51,8.21Z"></path>
  <path class="cls-3" d="M868.5,289.61c0-14.69.22-29.38-.12-44.06-.12-5.5,1.69-6.92,7.07-7.03,22.86-.49,22.85-.68,22.85,22.53s-.23,48.54.16,72.8c.1,6.32-1.68,7.85-7.87,7.81-22.1-.16-22.1.09-22.1-22.35v-29.7Z"></path>
  <path class="cls-3" d="M898.32,213q0,14.8-17.97,14.8-11.88,0-11.88-18.23,0-11.94,19.14-11.93,10.71,0,10.71,15.35h0Z"></path>
  <path class="cls-4" d="M518.36,353.31c-18.04-11.11-32.48-25.52-41.22-45.14l7.81-3.69c6.94,8.51,12.05,18.39,20.22,26.03,6.96,6.51,15.57,10.63,22.63,16.91-2.53,2.96-5.83,4.68-9.45,5.89h0ZM600.06,189.48c15.6,8.96,29.68,19.53,38.77,35.61,1.57,2.77,3.54,5.29,3.86,8.59-2.57,1.3-5.14,2.6-7.71,3.89-9.26-15.52-20.87-28.74-36.68-37.95-2.32-1.35-5.28-2.84-3.86-6.61,1.42-1.9,3.26-3.13,5.63-3.53h0Z"></path>
  <path class="cls-11" d="M577.6,205.12c1.23-2.02,3.03-3.31,5.25-4.04,2.89-1.73,5.91-2.13,9.06-.8,16.3,6.86,29.01,17.72,37.05,33.66,1.12,2.22,2.25,4.65.27,7.08-1.92,1.26-3.85,2.52-5.77,3.78-3.55-1.98-4.77-5.84-7.09-8.8-8.11-10.36-17.1-19.59-29.61-24.77-3.35-1.39-7.61-1.86-9.16-6.12Z"></path>
  <path class="cls-16" d="M629.23,241.04c-8.67-21.21-23.07-35.75-46.38-39.95,3.43-3.32,6.84-6.65,11.59-8.07,10.17,8.5,21.82,15.24,30.29,25.74,4.57,5.66,10.07,10.79,10.26,18.82l-5.75,3.46Z"></path>
  <path class="cls-6" d="M567.67,228.18c-3.17-1.93-5.74-4.45-7.59-7.69,1.81-1.52,3.61-3.05,5.42-4.57,19.76,1.9,34.39,11.84,44.62,28.57,1.64,2.69,3.31,5.51,1.98,8.92-1.3,2.55-3.47,4.16-5.9,5.49-2.79-.71-3.89-3.07-5.07-5.29-7.27-13.61-17.99-22.64-33.46-25.43h0Z"></path>
  <path class="cls-11" d="M541.04,337.72c-1.19,2.09-2.96,3.41-5.27,4.01-2.12.66-4.15,1.45-6.52.95-16.35-3.46-35.52-24.17-38.39-41.59,1.44-2.01,3.47-3.12,5.77-3.85,3.21.58,4.77,3.07,6.21,5.57,7.75,13.45,18.45,23.64,32.76,29.9,2.34,1.02,4.69,2.2,5.45,5.01Z"></path>
  <path class="cls-16" d="M490.86,301.09c2.54,4.42,5.13,8.82,7.6,13.28,8.22,14.89,21.15,23.32,37.31,27.36-2.13,2.63-4.69,4.66-7.96,5.69-20.55-8.07-34.95-22.26-42.86-42.94,1.97-1.13,3.94-2.26,5.91-3.39h0Z"></path>
  <path class="cls-9" d="M554.35,316.43c2.49,1.13,3.77,3.07,3.87,5.79-1.45,1.26-2.9,2.53-4.35,3.8-15.83,1.04-27.17-7.35-36.48-18.58-4.52-5.45-11.08-10.71-9.14-19.51,1.67-1.47,3.34-2.94,5.01-4.42,4.93-.92,5.69,3.4,7.02,6.19,6.97,14.61,19.01,22.53,34.06,26.73Z"></path>
  <path class="cls-1" d="M577.6,205.12c20.54,7.16,37.08,18.94,45.86,39.69-1.94,1.41-3.88,2.82-5.82,4.23-3.15-.79-4.3-3.56-5.75-5.95-8.94-14.81-21.3-24.9-38.62-28.23-1.57-.3-3.03-.88-4.01-2.28,2.14-3.2,4.89-5.72,8.34-7.45Z"></path>
  <path class="cls-15" d="M569.26,212.58c24.23,1.4,38.39,16.17,48.38,36.47-1.85,1.46-3.69,2.92-5.54,4.37-8.15-18.61-22.06-30.32-41.9-34.83-1.91-.44-3.72-.72-4.7-2.66.71-1.72,1.92-2.88,3.75-3.35h0Z"></path>
  <path class="cls-2" d="M508.26,287.93c8.27,21.01,23.78,33.34,45.62,38.09-.92,2.87-3.31,4.3-5.67,5.76-5.84,2.81-10.41-.96-15.16-3.12-11.98-5.45-21.37-13.83-27.47-25.63-1.89-3.66-4.2-7.37-1.29-11.6,1.32-1.16,2.64-2.33,3.97-3.49h0Z"></path>
  <path class="cls-14" d="M504.29,291.42c3.93,20.14,18.52,30.3,35.69,37.96,2.59,1.15,5.48,1.61,8.23,2.4-1.84,2.65-4.3,4.54-7.17,5.95-20.5-7.24-34.48-21.64-44.41-40.47l7.66-5.83Z"></path>
  <path class="cls-10" d="M554.35,316.43c-10.22,2.58-16.57-4.77-23.9-9.43-8.73-5.55-10.49-16.35-17.18-23.48,2.4-3.44,4.82-6.88,8.35-9.33,3.98,8.81,5.32,18.97,14,25.33,3.59,2.63,6.77,5.76,11.06,7.29,4.04,2.02,5.79,5.88,7.68,9.62Z"></path>
  <path class="cls-7" d="M567.67,228.18c9.16-3.57,15.32,2.56,21.59,7.2,8.04,5.95,13.17,14.33,16.95,23.52-1.42,2.46-3.06,4.72-5.66,6.08-3.49-2.13-4.57-5.94-6.17-9.28-4.47-9.35-13.09-14.2-20.96-19.89-2.98-1.75-5.49-3.84-5.75-7.63h0Z"></path>
  <path class="cls-8" d="M546.67,306.81c-2.37,3.24-4.9.89-6.54-.42-10.36-8.26-19.71-17.25-18.52-32.21.54-.7,1.08-1.4,1.62-2.1,10,10.1,15.84,23.01,23.44,34.73h0Z"></path>
  <path class="cls-13" d="M573.42,235.81c15.76,3.48,22.61,15.24,27.13,29.17l-4.09,5.39c-9.46-10.33-15.65-22.85-23.04-34.56Z"></path>
  <path class="cls-12" d="M794.24,316.5q-20.86,0-20.86-20.43,0-14.17,14.65-14.16c7.04,0,14.09-.29,21.11.13,10.4.62,17.76,8.56,17.27,18.03-.49,9.47-7.58,16.09-17.77,16.41-4.79.15-9.6.03-14.39.03h0Z"></path>
  <path class="cls-12" d="M773.38,239.65q0-17,16.71-17c4.15,0,8.33-.3,12.44.11,9.77.96,16.42,8.67,15.99,18.1-.41,9.07-7.09,15.67-16.71,16.3-3.5.23-7.02.08-10.53.08q-17.9,0-17.9-17.59h0ZM1065.79,311.64c-11.28-.14-21.4-10.39-21.37-21.64.02-11.61,10.78-21.93,22.42-21.52,11.42.4,21,10.6,20.74,22.09-.26,11.48-10.33,21.22-21.79,21.07h0Z"></path>
</svg>
