<?xml version="1.0" encoding="UTF-8"?>
<svg xmlns="http://www.w3.org/2000/svg" id="Layer_1" viewBox="0 0 1667.23 563.76">
  <defs>
    <style>.cls-1{fill:#fff;}.cls-2{fill:#f0b90b;}.cls-3{fill:#333;}</style>
  </defs>
  <rect class="cls-3" width="1667.23" height="563.76" rx="129.04" ry="129.04"></rect>
  <g id="bscscan-logo-circle">
    <path id="Path_1" class="cls-2" d="M365.35,274.82c0-6.72,5.45-12.16,12.16-12.16.02,0,.04,0,.05,0l20.25.07c6.73,0,12.18,5.45,12.18,12.18h0v76.59c2.28-.68,5.2-1.4,8.41-2.15,4.58-1.08,7.82-5.17,7.82-9.87v-95c0-6.73,5.45-12.18,12.18-12.18h20.32c6.73,0,12.18,5.45,12.18,12.18v88.18s5.08-2.06,10.03-4.15c3.76-1.59,6.2-5.27,6.21-9.35v-105.12c0-6.72,5.45-12.18,12.17-12.18h20.29c6.72,0,12.16,5.46,12.16,12.18v86.56c17.59-12.75,35.43-28.09,49.58-46.53,4.17-5.44,5.34-12.6,3.11-19.08-25.99-74.78-107.68-114.33-182.46-88.33-74.78,25.99-114.33,107.68-88.33,182.46,2.93,8.44,6.65,16.58,11.1,24.33,3.53,6.09,10.28,9.59,17.29,8.96,3.84-.34,8.62-.82,14.3-1.48,5.12-.58,8.99-4.91,8.99-10.07v-76.02"></path>
    <path id="Path_2" class="cls-2" d="M364.91,397.66c64.04,46.59,153.72,32.44,200.3-31.6,17.84-24.52,27.44-54.06,27.44-84.38,0-3.31-.15-6.57-.37-9.82-52.39,78.14-149.13,114.67-227.37,125.79"></path>
  </g>
  <path id="Path_123" class="cls-1" d="M711.37,280.25c6.86,1.24,13.05,4.89,17.45,10.3,4.36,5.35,6.68,12.08,6.55,18.98.43,9.1-3.3,17.89-10.13,23.91-6.75,5.84-16.54,8.77-29.36,8.77h-51.57v-120.16h50.55c12.14,0,21.47,2.67,28,8,6.53,5.33,9.79,12.82,9.79,22.46.28,6.63-1.8,13.14-5.87,18.38-3.93,4.78-9.36,8.08-15.4,9.37ZM668.31,272.42h21.61c4.9.35,9.77-1.07,13.71-4,3.23-2.92,4.95-7.15,4.68-11.49.26-4.35-1.42-8.6-4.6-11.58-3.06-2.72-7.77-4.08-14.13-4.08h-21.28v31.16ZM691.12,322.63c5.21.34,10.39-1.13,14.64-4.17,3.52-3.03,5.41-7.54,5.11-12.17.27-4.7-1.65-9.25-5.2-12.34-4.24-3.14-9.46-4.68-14.72-4.34h-22.63v33.02h22.81ZM784.73,246.72c11.46,0,20.65,2.89,27.57,8.68,6.98,5.89,11.58,14.12,12.94,23.15h-22.46c-.73-4.23-2.89-8.07-6.13-10.89-3.5-2.84-7.92-4.29-12.42-4.08-3.42-.21-6.81.81-9.54,2.89-2.28,1.95-3.53,4.83-3.4,7.83-.09,2.4.91,4.72,2.72,6.3,2,1.69,4.31,2.96,6.81,3.74,2.72.91,6.64,1.99,11.74,3.23,5.93,1.23,11.76,2.91,17.45,5.02,4.5,1.77,8.48,4.63,11.58,8.34,3.43,4.38,5.15,9.85,4.85,15.4.19,7.67-3.33,14.95-9.46,19.57-6.3,4.99-14.78,7.48-25.45,7.48-12.25,0-22.07-2.75-29.45-8.25-7.5-5.71-12.35-14.22-13.45-23.57h22.98c.4,4.36,2.63,8.35,6.13,10.98,4.03,2.82,8.88,4.23,13.79,4,3.39.23,6.73-.83,9.36-2.98,2.16-1.99,3.34-4.81,3.23-7.74.09-2.52-.94-4.95-2.81-6.64-2.02-1.79-4.4-3.12-6.98-3.91-2.78-.91-6.72-1.99-11.82-3.23-5.8-1.23-11.52-2.86-17.11-4.85-4.36-1.64-8.22-4.36-11.23-7.91-3.33-4.26-4.99-9.58-4.68-14.98-.2-7.74,3.27-15.13,9.36-19.91,6.23-5.11,14.86-7.66,25.86-7.66ZM886.68,246.72c10.97-.39,21.73,3.11,30.38,9.87,8.23,6.77,13.65,16.35,15.23,26.89h-25.37c-.82-4.65-3.3-8.85-6.98-11.82-3.95-3-8.83-4.53-13.79-4.34-6.09-.12-11.92,2.47-15.91,7.06-4.26,4.71-6.38,11.6-6.38,20.68,0,9.08,2.13,15.97,6.38,20.68,4,4.59,9.83,7.18,15.91,7.06,4.96.19,9.83-1.34,13.79-4.34,3.68-2.97,6.15-7.17,6.98-11.82h25.36c-1.58,10.54-7.01,20.12-15.23,26.89-8.65,6.75-19.41,10.24-30.37,9.84-8.54.16-16.97-1.86-24.51-5.86-7.08-3.84-12.87-9.67-16.68-16.77-4.13-7.92-6.18-16.77-5.96-25.7-.22-8.96,1.83-17.83,5.96-25.79,3.77-7.12,9.58-12.96,16.68-16.77,7.55-3.96,15.98-5.95,24.51-5.79ZM1031.87,309.37c.05,5.96-1.54,11.82-4.6,16.94-3.27,5.35-7.99,9.66-13.62,12.42-6.84,3.3-14.37,4.9-21.96,4.66-7.82.13-15.58-1.34-22.81-4.34-6.38-2.65-11.93-6.97-16.07-12.51-4.07-5.57-6.46-12.18-6.89-19.06h25.53c.45,4.63,2.53,8.94,5.87,12.17,3.63,3.34,8.44,5.09,13.36,4.85,4.21.28,8.36-1.16,11.49-4,2.69-2.74,4.14-6.46,4-10.3.13-3.39-1.03-6.7-3.23-9.28-2.27-2.52-5.06-4.52-8.17-5.87-3.29-1.48-7.83-3.18-13.62-5.11-6.3-2.01-12.45-4.49-18.38-7.4-4.85-2.52-9.03-6.16-12.17-10.64-3.56-5.38-5.32-11.76-5.02-18.2-.4-9.46,3.74-18.53,11.15-24.42,7.43-5.96,17.28-8.94,29.53-8.94s22.84,3.06,30.38,9.19c7.49,6.03,12.14,14.91,12.84,24.5h-25.87c-.55-4.06-2.47-7.81-5.44-10.64-3.33-2.92-7.67-4.41-12.08-4.17-3.88-.18-7.69,1.06-10.72,3.49-2.84,2.58-4.35,6.31-4.09,10.14-.11,3.22,1.02,6.35,3.15,8.77,2.25,2.43,4.97,4.37,8,5.7,4.31,1.88,8.71,3.53,13.19,4.94,6.41,2.19,12.69,4.75,18.81,7.66,4.94,2.49,9.19,6.17,12.34,10.72,3.63,5.55,5.41,12.09,5.11,18.71v.02ZM1091.95,246.72c10.97-.39,21.73,3.11,30.38,9.87,8.23,6.77,13.65,16.35,15.23,26.89h-25.36c-.82-4.65-3.3-8.85-6.98-11.82-3.95-3-8.83-4.53-13.79-4.34-6.09-.12-11.92,2.47-15.91,7.06-4.26,4.71-6.38,11.6-6.38,20.68s2.13,15.97,6.38,20.68c4,4.59,9.83,7.18,15.91,7.06,4.96.19,9.83-1.34,13.79-4.34,3.68-2.97,6.15-7.17,6.98-11.82h25.36c-1.59,10.53-7.01,20.1-15.23,26.87-8.65,6.76-19.41,10.25-30.38,9.86-8.54.16-16.97-1.86-24.51-5.86-7.08-3.84-12.87-9.67-16.68-16.77-4.13-7.92-6.18-16.77-5.96-25.7-.22-8.96,1.83-17.83,5.96-25.79,3.77-7.12,9.58-12.96,16.68-16.77,7.55-3.96,15.98-5.95,24.51-5.79ZM1191.52,246.72c7.22-.2,14.33,1.75,20.42,5.62,5.56,3.61,9.8,8.92,12.08,15.15v-19.57h23.83v94.29h-23.83v-19.74c-2.29,6.24-6.53,11.58-12.08,15.23-6.08,3.91-13.2,5.9-20.42,5.69-7.55.11-14.98-1.9-21.45-5.79-6.49-4.01-11.67-9.84-14.89-16.77-3.74-8.07-5.57-16.89-5.36-25.79-.21-8.89,1.63-17.71,5.36-25.79,3.22-6.92,8.4-12.75,14.89-16.77,6.47-3.89,13.9-5.89,21.45-5.78ZM1199.01,267.66c-6.79-.28-13.37,2.39-18.04,7.33-4.54,4.89-6.81,11.58-6.81,20.09,0,8.51,2.27,15.18,6.81,20,4.7,4.89,11.27,7.52,18.04,7.23,6.77.21,13.31-2.49,17.97-7.4,4.89-5.41,7.43-12.54,7.06-19.83.38-7.34-2.16-14.53-7.06-20-4.66-4.92-11.19-7.63-17.97-7.42ZM1325.81,246.55c9.84-.44,19.37,3.48,26.04,10.72,6.46,7.15,9.69,17.19,9.69,30.13v54.81h-23.83v-52.08c0-7.49-1.93-13.3-5.79-17.45-4.14-4.26-9.91-6.52-15.84-6.21-6.15-.27-12.12,2.15-16.34,6.64-4.08,4.43-6.13,10.78-6.13,19.06v50.04h-23.98v-94.29h24v18.88c2.36-6.19,6.7-11.42,12.34-14.89,5.97-3.64,12.85-5.49,19.84-5.35h0Z"></path>
</svg>
