<?xml version="1.0" encoding="UTF-8"?>
<svg xmlns="http://www.w3.org/2000/svg" id="Layer_1" viewBox="0 0 1667.23 563.76">
  <defs>
    <style>.cls-1{fill:#fff;}.cls-2{fill:#3861fa;}</style>
  </defs>
  <rect class="cls-2" x="0" width="1667.23" height="563.76" rx="129.04" ry="129.04"></rect>
  <path class="cls-1" d="M528.07,239.87c2.87,1.68,5.51,5.74,5.51,9.33,0,5.74-4.79,10.53-10.29,10.53-1.44,0-2.63-.48-3.83-.72-6.46-4.79-14.6-7.9-23.22-7.9-20.35,0-34.23,16.52-34.23,37.1s14.12,36.86,34.23,36.86c10.05,0,19.15-4.07,25.85-10.53,1.68-1.2,3.83-1.91,5.98-1.91,5.51,0,9.81,4.31,9.81,9.81,0,3.59-2.15,6.7-4.79,8.38-9.81,8.38-22.98,13.88-36.62,13.88-31.12,0-56.49-25.61-56.49-57.21s25.37-57.21,56.49-57.21c11.49-.24,22.5,3.35,31.6,9.57ZM585.04,263.81c21.3,0,39.02,17.95,39.02,40.21s-17.95,40.93-39.02,40.93c-22.26,0-40.69-18.67-40.69-40.93s18.43-40.21,40.69-40.21ZM584.8,325.08c9.33,0,17.23-8.86,17.23-20.82s-7.9-19.63-17.23-19.63c-10.05,0-18.43,7.42-18.43,19.63s8.38,20.82,18.43,20.82ZM637.46,332.5v-56.49c0-6.22,4.79-11.25,11.01-11.25s11.01,5.03,11.01,11.25v56.49c0,6.22-5.03,11.25-11.01,11.25s-11.01-5.27-11.01-11.25ZM635.78,243.46c0-7.42,5.74-13.16,12.69-13.16s12.93,5.98,12.93,13.16-5.74,12.93-12.93,12.93c-7.18-.24-12.69-5.98-12.69-12.93ZM701.61,301.87v30.64c0,6.22-5.03,11.25-11.01,11.25s-11.01-5.03-11.01-11.25v-59.12c0-4.79,3.83-8.62,8.62-8.62s8.38,4.07,8.38,8.62c8.86-8.38,16.76-9.57,24.18-9.57,22.02,0,31.83,16.52,31.83,35.43v33.27c0,6.22-5.03,11.25-11.01,11.25s-11.01-5.03-11.01-11.25v-30.64c0-9.57-1.2-17.71-15.08-17.71-9.81,0-13.88,8.14-13.88,17.71h0ZM823.92,313.6c-2.63,0-4.31-1.2-5.74-2.87l-25.61-27.77v49.55c0,6.22-5.03,11.25-11.01,11.25s-11.01-5.03-11.01-11.25v-98.14c.72-1.68,2.39-2.87,4.07-2.87,1.91,0,3.59,1.68,4.79,2.87l40.93,45.96c1.2,1.44,2.63,2.15,3.59,2.15.72,0,2.39-.72,3.59-2.15l40.93-45.96c1.2-1.2,2.63-2.87,4.79-2.87,1.91,0,3.59,1.2,4.07,2.87v98.14c0,6.22-4.79,11.25-11.01,11.25s-11.01-5.03-11.01-11.25v-49.55l-25.61,27.77c-1.91,1.68-3.59,2.87-5.74,2.87h0ZM929.72,325.08c9.81,0,18.19-8.86,18.19-20.82s-8.62-19.87-18.19-19.87-17.47,8.14-17.47,19.87,7.66,20.82,17.47,20.82ZM953.17,335.14l-.48-2.63c-4.31,8.38-17.95,12.21-26.57,12.21-20.58,0-35.9-18.67-35.9-40.93s15.56-40.21,37.1-40.21c3.59,0,16.04.96,25.61,12.21l.48-2.63c0-4.79,3.59-8.62,8.38-8.62s8.62,4.07,8.62,8.62v61.75c0,4.79-3.83,8.62-8.62,8.62-5.03.24-8.62-3.83-8.62-8.38h0ZM1030.97,284.15h-2.39c-13.88.72-16.52,8.62-16.52,17.71v30.64c0,6.22-5.03,11.25-11.01,11.25s-11.01-5.03-11.01-11.25v-59.12c0-4.79,3.83-8.62,8.62-8.62s8.38,4.07,8.38,8.62c8.14-7.66,14.84-9.33,21.54-9.57h2.15c5.27,0,10.05,4.55,10.05,10.29.24,5.27-4.55,10.05-9.81,10.05h0ZM1115.94,327.24c.96,1.68,1.68,3.35,1.68,5.27,0,5.74-5.27,11.01-11.01,11.01-3.83,0-7.18-2.87-9.81-6.22l-25.37-29.44v24.41c0,6.22-5.03,11.25-11.01,11.25s-11.01-5.03-11.01-11.25v-89.76c0-6.22,4.79-11.25,11.01-11.25s11.01,5.03,11.01,11.25v56.01l25.37-28c2.63-2.87,5.74-5.98,9.57-5.98,5.51,0,10.53,5.03,10.53,10.77,0,1.68-.48,3.59-1.44,5.03l-20.11,22.02,20.58,24.89h0ZM1159.02,284.39c-5.98,0-15.8,3.11-15.8,12.45h31.83c-.24-9.34-10.29-12.45-16.04-12.45h0ZM1187.75,310.96h-44.52c0,13.16,12.69,15.32,18.19,15.32,4.07,0,9.81-.72,14.36-2.87,1.44-.96,3.59-1.68,5.74-1.68,4.79,0,8.86,4.07,8.86,9.1,0,3.35-2.15,6.22-4.79,7.9-6.7,5.03-15.56,6.22-23.94,6.22-22.26,0-40.69-11.97-40.69-39.97,0-22.02,11.25-41.17,37.58-41.17,21.3,0,37.34,13.88,37.82,38.54,0,4.55-3.83,8.62-8.62,8.62h0ZM1249.02,344.71h-5.98c-16.76,0-26.57-7.42-26.57-33.51v-27.05h-5.74c-5.27,0-9.81-4.79-9.81-10.05,0-5.74,4.79-10.29,9.81-10.29h5.74v-20.82c0-6.22,4.79-11.25,11.01-11.25s11.01,5.03,11.01,11.25v20.82h9.1c5.27,0,9.81,4.55,9.81,10.29,0,5.27-4.79,10.05-9.81,10.05h-9.1v22.74c0,15.08.72,18.19,7.42,18.19h3.11c5.27,0,9.81,4.31,9.81,9.81s-4.55,9.81-9.81,9.81h0ZM1355.54,239.87c2.87,1.68,5.51,5.74,5.51,9.33,0,5.74-4.79,10.53-10.29,10.53-1.44,0-2.63-.48-3.83-.72-6.46-4.79-14.6-7.9-23.22-7.9-20.35,0-34.23,16.52-34.23,37.1s14.12,36.86,34.23,36.86c10.05,0,19.15-4.07,25.85-10.53,1.68-1.2,3.83-1.91,5.98-1.91,5.51,0,9.81,4.31,9.81,9.81,0,3.59-2.15,6.7-4.79,8.38-9.81,8.38-22.98,13.88-36.62,13.88-31.12,0-56.49-25.61-56.49-57.21s25.37-57.21,56.49-57.21c11.49-.24,22.74,3.35,31.6,9.57h0ZM1411.31,325.08c9.81,0,18.19-8.86,18.19-20.82s-8.62-19.87-18.19-19.87-17.47,8.14-17.47,19.87,7.9,20.82,17.47,20.82h0ZM1434.76,335.14l-.48-2.63c-4.31,8.38-17.95,12.21-26.57,12.21-20.58,0-35.9-18.67-35.9-40.93s15.56-40.21,37.1-40.21c3.59,0,16.04.96,25.61,12.21l.48-2.63c0-4.79,3.59-8.62,8.38-8.62s8.62,4.07,8.62,8.62v61.75c0,4.79-3.83,8.62-8.62,8.62-5.03.24-8.62-3.83-8.62-8.38ZM1512.08,325.08c9.81,0,17.47-9.33,17.47-20.82s-7.9-19.87-17.47-19.87-18.19,7.9-18.19,19.87,8.38,20.82,18.19,20.82ZM1493.89,338.25v28c0,6.22-5.03,11.25-11.01,11.25s-11.01-5.03-11.01-11.25v-92.87c0-4.79,3.83-8.62,8.62-8.62s8.38,4.07,8.38,9.57c8.14-8.38,18.19-10.53,25.85-10.53,21.3,0,37.1,17.95,37.1,40.21s-15.08,40.93-35.9,40.93c-6.46-.24-16.04-2.15-22.02-6.7h0Z" vector-effect="non-scaling-stroke"></path>
  <path class="cls-1" d="M358.61,282v-.48c-.24-67.74-54.81-123.03-121.59-123.03s-121.59,55.29-121.59,123.51,54.57,123.51,121.59,123.51c30.88,0,60.08-11.73,82.58-33.03,4.55-4.31,4.79-11.25.48-15.8-4.07-4.55-11.01-4.79-15.56-.72l-.24.24c-18.19,17.23-42.61,27.05-67.74,27.05-29.44,0-55.77-12.93-73.96-33.51l51.94-83.3v38.54c0,18.43,7.18,24.41,13.16,26.09,5.98,1.68,15.08.48,24.89-15.08l28.48-46.2c.96-1.44,1.68-2.87,2.63-3.83v23.46c0,17.23,6.94,31.12,18.91,37.82,10.77,6.22,24.41,5.51,35.66-1.44,13.88-9.1,21.3-24.89,20.35-43.8ZM327.01,306.18c-4.31,2.63-9.33,3.11-13.16.96-4.79-2.87-7.66-9.33-7.66-18.19v-27.05c0-12.93-5.03-22.26-13.64-24.65-14.6-4.31-25.61,13.64-29.68,20.35l-25.85,41.41v-50.98c-.24-11.73-4.07-18.67-11.25-20.82-4.79-1.44-11.97-.72-18.91,9.81l-57.69,92.39c-7.66-14.6-11.73-30.88-11.73-47.39,0-55.77,44.76-101.01,99.57-101.01s99.57,45.24,99.57,101.01v.48c.48,10.77-2.87,19.39-9.57,23.7Z"></path>
</svg>
