<?xml version="1.0" encoding="UTF-8"?>
<svg xmlns="http://www.w3.org/2000/svg" id="Layer_1" viewBox="0 0 1667.23 563.76">
  <defs>
    <style>.cls-1{fill:#8bc53f;}.cls-2{fill:#8dc63f;}.cls-3{fill:#fff;}.cls-4{fill:#f9e988;}.cls-5{fill:#333;}.cls-6{fill:#58595b;}.cls-7{fill:#009345;}</style>
  </defs>
  <rect class="cls-5" width="1667.23" height="563.76" rx="129.04" ry="129.04"></rect>
  <path class="cls-3" d="M724.14,260.65c-3.43-13.39-12.09-23.2-29.07-23.2-25.01,0-35.46,22.05-35.46,44.42s10.45,44.44,35.46,44.44c18.13,0,28.16-13.55,29.73-30.54h19.94c-1.64,27.93-21.4,47.2-49.67,47.2-34.97,0-55.88-27.77-55.88-61.11s20.91-61.09,55.88-61.09c26.29.16,47.04,14.7,49.49,39.86h-20.42ZM756.83,297.89c0-25.8,15.52-44.44,42.64-44.44s42.63,18.64,42.63,44.44-15.52,44.6-42.63,44.6-42.64-18.62-42.64-44.6ZM823.48,297.89c0-14.54-7.36-29.73-24.01-29.73s-24.02,15.19-24.02,29.73,7.36,29.92,24.02,29.92,24.01-15.21,24.01-29.92ZM858.11,223.56h18.62v17.6h-18.62v-17.6ZM858.11,255.74h18.62v84.48h-18.62v-84.48ZM897.01,255.74h17.6v12.43l.33.32c5.44-9.35,15.47-15.09,26.29-15.03,18.3,0,29.92,9.8,29.92,28.76v58.08h-18.6v-53.17c-.33-13.23-5.56-18.95-16.51-18.95-12.41,0-20.42,9.8-20.42,22.21v49.82h-18.62v-84.46ZM1095.18,340.2h-13.08l-3.1-13.71c-10.95,12.41-20.93,16.49-35.2,16.49-34.97,0-55.88-27.77-55.88-61.11s20.91-61.09,55.88-61.09c25.48,0,46.89,13.55,49.98,39.86h-19.85c-1.97-15.36-15.36-23.2-30.06-23.2-24.99,0-35.46,22.05-35.46,44.42s10.47,44.44,35.46,44.44c20.91.33,32.35-12.32,32.66-32.01h-31.03v-15.52h49.67v61.42ZM1129.32,302.8c0,13.23,7.18,24.99,22.7,24.99,10.79,0,17.32-4.73,20.59-14.08h17.6c-4.08,18.46-19.76,28.74-38.23,28.74-26.4,0-41.32-18.46-41.32-44.44,0-24.01,15.68-44.6,40.83-44.6,26.63,0,42.98,24.02,39.86,49.28l-62.04.11ZM1172.78,290.48c-.65-11.76-8.66-22.37-21.24-22.37s-21.72,9.8-22.21,22.37h43.45ZM1262.64,284c-1.48-10.3-8.99-15.84-19.36-15.84-9.63,0-23.2,5.07-23.2,30.71,0,14.08,6.21,28.92,22.39,28.92,10.79,0,18.3-7.18,20.1-19.27h18.62c-3.52,21.88-16.98,33.97-38.72,33.97-26.4,0-41.01-18.78-41.01-43.61s13.89-45.42,41.66-45.42c19.61,0,36.27,9.8,38.07,30.55h-18.55ZM1296.94,223.56h18.64v66.32l33.74-34.14h22.88l-32.35,31.05,35.46,53.41h-22.83l-25.8-41.01-11.11,10.79v30.22h-18.64v-116.63ZM1380.27,297.89c0-25.8,15.52-44.44,42.63-44.44s42.57,18.64,42.57,44.44-15.52,44.6-42.64,44.6-42.56-18.62-42.56-44.6ZM1446.92,297.89c0-14.54-7.36-29.73-24.02-29.73s-24.01,15.19-24.01,29.73,7.36,29.92,24.01,29.92,24.02-15.21,24.02-29.92Z"></path>
  <path class="cls-2" d="M535.83,281.14c.41,92.25-74.05,167.37-166.3,167.77-92.25.41-167.37-74.05-167.77-166.3-.41-92.24,74.03-167.35,166.28-167.77,92.26-.41,167.38,74.04,167.79,166.3Z"></path>
  <path class="cls-4" d="M523.25,281.18c.39,85.3-68.45,154.77-153.75,155.15-85.3.39-154.77-68.45-155.15-153.75-.39-85.3,68.45-154.77,153.75-155.15,85.3-.39,154.77,68.45,155.16,153.75,0,0,0,0,0,0Z"></path>
  <path class="cls-3" d="M371.61,137.44c9.82-1.75,19.87-1.75,29.69,0,9.91,1.57,19.5,4.78,28.35,9.5,8.8,4.84,16.42,11.4,23.99,17.6,7.57,6.2,15.12,12.46,22.3,19.36,7.32,6.78,13.71,14.51,19.01,22.97,5.46,8.4,9.93,17.41,13.32,26.84,6.6,18.83,8.48,39,5.47,58.73h-.99c-2.9-18.85-7.75-37.35-14.47-55.19-3.22-8.83-7.01-17.43-11.35-25.77-4.56-8.31-9.58-16.36-15.03-24.11-5.56-7.85-12.38-14.73-20.17-20.36-7.83-5.58-16.84-9.2-25.57-12.64-8.73-3.43-17.46-6.85-26.52-9.47-9.06-2.62-18.34-4.58-28-6.48l-.04-.99Z"></path>
  <path class="cls-1" d="M447.11,226.62c-11.21-3.26-22.88-7.85-34.6-12.5-.67-2.96-3.29-6.64-8.57-11.12-7.69-6.67-22.12-6.49-34.6-3.52-13.76-3.24-27.37-4.38-40.48-1.25-106.74,29.39-46.2,101.25-85.41,173.41,5.58,11.83,65.72,80.96,152.73,62.36,0,0-29.74-71.51,37.4-105.83,54.47-27.93,93.84-79.64,13.53-101.55h0Z"></path>
  <path class="cls-3" d="M460.29,273.63c.03,3.58-2.85,6.5-6.42,6.53-3.58.03-6.5-2.85-6.53-6.42s2.85-6.5,6.42-6.53c.01,0,.02,0,.03,0,3.57-.02,6.47,2.86,6.49,6.42h0Z"></path>
  <path class="cls-7" d="M369.34,199.45c7.78.56,35.92,9.75,43.17,14.68-6-17.6-26.4-19.89-43.17-14.68Z"></path>
  <path class="cls-3" d="M376.75,243.83c0,16.52-13.4,29.92-29.92,29.92s-29.92-13.4-29.92-29.92,13.4-29.92,29.92-29.92,29.92,13.4,29.92,29.92Z"></path>
  <path class="cls-6" d="M367.89,244.1c0,11.61-9.39,21.02-21,21.03-11.61,0-21.02-9.39-21.03-21,0-11.61,9.39-21.02,21-21.03,0,0,.01,0,.02,0,11.59,0,20.99,9.4,21.01,21Z"></path>
  <path class="cls-1" d="M484.49,286.79c-24.2,17.05-51.73,29.92-90.76,29.92-18.27,0-21.96-19.36-34.04-9.89-6.25,4.91-28.16,15.84-45.67,15.07-17.51-.77-45.76-11.07-53.59-48.29-3.12,37.22-4.72,64.64-18.69,96.08,27.84,44.58,94.21,78.95,154.44,64.17-6.46-45.2,33.03-89.48,55.3-112.13,8.41-8.57,24.64-22.58,33.02-34.99v.07Z"></path>
  <path class="cls-6" d="M483.54,287.92c-7.71,6.63-16.31,12.15-25.55,16.39-9.21,4.38-18.82,7.88-28.69,10.45-9.86,2.55-20.17,4.47-30.61,3.52-10.44-.95-21.12-4.51-28-12.32l.33-.39c8.52,5.51,18.25,7.44,27.97,7.73,9.86.29,19.73-.53,29.41-2.45,9.78-2.04,19.35-4.98,28.58-8.8,9.38-3.58,18.22-8.46,26.24-14.5l.32.37Z"></path>
</svg>
