<?xml version="1.0" encoding="UTF-8"?>
<svg xmlns="http://www.w3.org/2000/svg" id="Layer_1" viewBox="0 0 1667.23 563.76">
  <defs>
    <style>.cls-1{fill:#fff;}.cls-2{fill:#24e2c5;}.cls-3{fill:#333;}</style>
  </defs>
  <rect class="cls-3" width="1667.23" height="563.76" rx="129.04" ry="129.04"></rect>
  <path class="cls-1" d="M565.94,350.15c-11.26,0-20.62-2.08-28.08-6.24-7.34-4.16-12.91-9.97-16.7-17.44-3.79-7.46-5.87-16.15-6.24-26.06-.12-5.02-.18-10.4-.18-16.15s.06-11.26.18-16.52c.37-9.91,2.45-18.6,6.24-26.06,3.79-7.46,9.36-13.28,16.7-17.44,7.46-4.16,16.82-6.24,28.08-6.24,8.44,0,15.85,1.16,22.21,3.49,6.36,2.32,11.62,5.44,15.78,9.36,4.28,3.92,7.53,8.32,9.73,13.21,2.2,4.77,3.43,9.73,3.67,14.87.12,1.1-.24,2.02-1.1,2.75-.73.73-1.65,1.1-2.75,1.1h-10.09c-1.1,0-2.08-.31-2.94-.92-.73-.61-1.28-1.71-1.65-3.3-2.08-9.54-6-16.09-11.75-19.64-5.63-3.55-12.73-5.32-21.29-5.32-9.79,0-17.56,2.81-23.31,8.44-5.75,5.51-8.87,14.38-9.36,26.61-.37,10.03-.37,20.31,0,30.83.49,12.24,3.61,21.17,9.36,26.8,5.75,5.51,13.52,8.26,23.31,8.26,8.57,0,15.66-1.77,21.29-5.32,5.75-3.55,9.67-10.09,11.75-19.64.37-1.59.92-2.69,1.65-3.3.86-.61,1.84-.92,2.94-.92h10.09c1.1,0,2.02.37,2.75,1.1.86.73,1.22,1.65,1.1,2.75-.24,5.14-1.47,10.16-3.67,15.05-2.2,4.77-5.44,9.12-9.73,13.03-4.16,3.92-9.42,7.04-15.78,9.36-6.36,2.32-13.77,3.49-22.21,3.49ZM656.25,383.19c-.98,0-1.84-.37-2.57-1.1-.73-.73-1.1-1.59-1.1-2.57,0-.49.06-.98.18-1.47.12-.49.37-1.1.73-1.84l14.13-33.59-35.06-82.78c-.61-1.47-.92-2.51-.92-3.12,0-1.1.37-2.02,1.1-2.75.73-.73,1.65-1.1,2.75-1.1h8.99c1.22,0,2.2.31,2.94.92.73.61,1.22,1.35,1.47,2.2l27.9,66.81,28.63-66.81c.37-.86.86-1.59,1.47-2.2.73-.61,1.77-.92,3.12-.92h8.63c1.1,0,2.02.37,2.75,1.1.73.73,1.1,1.59,1.1,2.57,0,.61-.31,1.71-.92,3.3l-52.12,120.22c-.37.86-.92,1.59-1.65,2.2-.61.61-1.59.92-2.94.92h-8.63ZM787.8,350.15c-7.34,0-13.46-1.28-18.35-3.85-4.89-2.69-8.81-6-11.75-9.91v7.71c0,1.22-.43,2.26-1.28,3.12-.73.73-1.71,1.1-2.94,1.1h-8.44c-1.22,0-2.26-.37-3.12-1.1-.73-.86-1.1-1.9-1.1-3.12v-121.87c0-1.22.37-2.2,1.1-2.94.86-.86,1.9-1.28,3.12-1.28h8.81c1.35,0,2.39.43,3.12,1.28.73.73,1.1,1.71,1.1,2.94v42.21c3.06-3.79,6.97-6.97,11.75-9.54,4.89-2.57,10.89-3.85,17.99-3.85s12.66,1.22,17.44,3.67c4.89,2.32,8.87,5.57,11.93,9.73,3.18,4.16,5.57,8.87,7.16,14.13,1.59,5.26,2.45,10.77,2.57,16.52.12,1.96.18,3.79.18,5.51s-.06,3.55-.18,5.51c-.12,5.87-.98,11.44-2.57,16.7-1.59,5.26-3.98,9.97-7.16,14.13-3.06,4.04-7.04,7.28-11.93,9.73-4.77,2.32-10.58,3.49-17.44,3.49ZM783.95,335.29c6.36,0,11.32-1.35,14.87-4.04,3.67-2.81,6.3-6.42,7.89-10.83,1.59-4.53,2.51-9.36,2.75-14.5.12-3.55.12-7.1,0-10.65-.24-5.14-1.16-9.91-2.75-14.32-1.59-4.53-4.22-8.14-7.89-10.83-3.55-2.81-8.5-4.22-14.87-4.22-5.75,0-10.52,1.35-14.32,4.04-3.79,2.69-6.67,6.12-8.63,10.28-1.84,4.16-2.81,8.38-2.94,12.66-.12,1.96-.18,4.34-.18,7.16s.06,5.02.18,6.97c.24,4.53,1.22,8.99,2.94,13.4,1.84,4.28,4.59,7.83,8.26,10.65,3.79,2.81,8.69,4.22,14.68,4.22ZM887.78,350.15c-12.6,0-22.64-3.85-30.1-11.56-7.46-7.83-11.56-18.48-12.3-31.94-.12-1.59-.18-3.61-.18-6.06,0-2.57.06-4.65.18-6.24.49-8.69,2.51-16.27,6.06-22.76,3.55-6.61,8.38-11.69,14.5-15.23,6.24-3.55,13.52-5.32,21.84-5.32,9.3,0,17.07,1.96,23.31,5.87,6.36,3.92,11.2,9.48,14.5,16.7,3.3,7.22,4.96,15.66,4.96,25.33v3.12c0,1.35-.43,2.39-1.28,3.12-.73.73-1.71,1.1-2.94,1.1h-63.5v1.65c.24,5.02,1.35,9.73,3.3,14.13,1.96,4.28,4.77,7.77,8.44,10.46,3.67,2.69,8.08,4.04,13.21,4.04,4.4,0,8.08-.67,11.01-2.02,2.94-1.35,5.32-2.81,7.16-4.4,1.84-1.71,3.06-3,3.67-3.85,1.1-1.59,1.96-2.51,2.57-2.75.61-.37,1.59-.55,2.94-.55h8.81c1.22,0,2.2.37,2.94,1.1.86.61,1.22,1.53,1.1,2.75-.12,1.84-1.1,4.1-2.94,6.79-1.84,2.57-4.47,5.14-7.89,7.71-3.43,2.57-7.59,4.71-12.48,6.42-4.89,1.59-10.52,2.39-16.89,2.39ZM862.82,293.62h50.29v-.55c0-5.51-1.04-10.4-3.12-14.68-1.96-4.28-4.83-7.65-8.63-10.09-3.79-2.57-8.32-3.85-13.58-3.85s-9.79,1.28-13.58,3.85c-3.67,2.45-6.48,5.81-8.44,10.09-1.96,4.28-2.94,9.18-2.94,14.68v.55ZM956.71,348.32c-1.22,0-2.26-.37-3.12-1.1-.73-.86-1.1-1.9-1.1-3.12v-86.81c0-1.22.37-2.26,1.1-3.12.86-.86,1.9-1.28,3.12-1.28h8.44c1.22,0,2.26.43,3.12,1.28.86.86,1.28,1.9,1.28,3.12v8.08c2.45-4.16,5.81-7.28,10.09-9.36s9.42-3.12,15.42-3.12h7.34c1.22,0,2.2.43,2.94,1.28.73.73,1.1,1.71,1.1,2.94v7.53c0,1.22-.37,2.2-1.1,2.94-.73.73-1.71,1.1-2.94,1.1h-11.01c-6.61,0-11.81,1.96-15.6,5.87-3.79,3.79-5.69,8.99-5.69,15.6v53.96c0,1.22-.43,2.26-1.28,3.12-.86.73-1.9,1.1-3.12,1.1h-8.99Z"></path>
  <path class="cls-1" d="M1055.25,350.15c-6.85,0-12.73-.86-17.62-2.57-4.89-1.71-8.87-3.79-11.93-6.24-3.06-2.45-5.38-4.89-6.97-7.34-1.47-2.45-2.26-4.4-2.39-5.87-.12-1.35.31-2.39,1.28-3.12s1.96-1.1,2.94-1.1h8.08c.73,0,1.28.12,1.65.37.49.12,1.1.61,1.84,1.47,1.59,1.71,3.36,3.43,5.32,5.14,1.96,1.71,4.34,3.12,7.16,4.22,2.94,1.1,6.55,1.65,10.83,1.65,6.24,0,11.38-1.16,15.42-3.49,4.04-2.45,6.06-6,6.06-10.65,0-3.06-.86-5.51-2.57-7.34-1.59-1.84-4.53-3.49-8.81-4.96-4.16-1.47-9.91-3-17.25-4.59-7.34-1.71-13.15-3.79-17.44-6.24-4.28-2.57-7.34-5.57-9.18-8.99-1.84-3.55-2.75-7.53-2.75-11.93s1.35-8.87,4.04-13.03c2.69-4.28,6.61-7.77,11.75-10.46,5.26-2.69,11.81-4.04,19.64-4.04,6.36,0,11.81.8,16.33,2.39,4.53,1.59,8.26,3.61,11.2,6.06,2.94,2.32,5.14,4.65,6.61,6.97s2.26,4.28,2.39,5.87c.12,1.22-.24,2.26-1.1,3.12-.86.73-1.84,1.1-2.94,1.1h-7.71c-.86,0-1.59-.18-2.2-.55-.49-.37-.98-.8-1.47-1.28-1.22-1.59-2.69-3.18-4.4-4.77-1.59-1.59-3.73-2.88-6.42-3.85-2.57-1.1-6-1.65-10.28-1.65-6.12,0-10.71,1.28-13.77,3.85-3.06,2.57-4.59,5.81-4.59,9.73,0,2.32.67,4.4,2.02,6.24,1.35,1.84,3.92,3.49,7.71,4.96,3.79,1.47,9.42,3.06,16.89,4.77,8.08,1.59,14.44,3.73,19.09,6.42s7.95,5.81,9.91,9.36c1.96,3.55,2.94,7.65,2.94,12.3,0,5.14-1.53,9.85-4.59,14.13-2.94,4.28-7.34,7.71-13.21,10.28-5.75,2.45-12.91,3.67-21.47,3.67ZM1154.31,350.15c-8.69,0-16.21-1.65-22.57-4.96-6.24-3.43-11.08-8.26-14.5-14.5-3.43-6.36-5.26-13.95-5.5-22.76-.12-1.84-.18-4.28-.18-7.34s.06-5.51.18-7.34c.24-8.81,2.08-16.33,5.5-22.58,3.43-6.36,8.26-11.2,14.5-14.5,6.36-3.43,13.88-5.14,22.57-5.14,7.1,0,13.16.98,18.17,2.94,5.14,1.96,9.36,4.47,12.66,7.53,3.3,3.06,5.75,6.36,7.34,9.91,1.71,3.55,2.64,6.91,2.76,10.09.12,1.22-.24,2.2-1.1,2.94-.86.73-1.9,1.1-3.12,1.1h-8.81c-1.22,0-2.14-.24-2.75-.73-.61-.61-1.22-1.59-1.84-2.94-2.2-6-5.2-10.22-9-12.66-3.79-2.45-8.5-3.67-14.13-3.67-7.34,0-13.34,2.26-17.99,6.79-4.53,4.53-6.97,11.81-7.34,21.84-.12,4.4-.12,8.69,0,12.85.37,10.16,2.81,17.5,7.34,22.02,4.65,4.4,10.65,6.61,17.99,6.61,5.63,0,10.33-1.22,14.13-3.67,3.79-2.45,6.8-6.67,9-12.66.61-1.35,1.22-2.26,1.84-2.75.61-.61,1.52-.92,2.75-.92h8.81c1.22,0,2.27.37,3.12,1.1.86.73,1.22,1.71,1.1,2.94-.12,2.57-.68,5.2-1.66,7.89-.98,2.69-2.57,5.44-4.77,8.26-2.08,2.69-4.71,5.14-7.89,7.34-3.18,2.08-7.04,3.79-11.57,5.14-4.4,1.22-9.42,1.84-15.05,1.84ZM1256.13,350.15c-9.3,0-17.06-1.77-23.3-5.32-6.24-3.55-11.01-8.44-14.32-14.68-3.3-6.36-5.14-13.58-5.51-21.66-.12-2.08-.19-4.71-.19-7.89s.07-5.93.19-7.89c.37-8.2,2.2-15.42,5.51-21.66,3.43-6.24,8.25-11.13,14.49-14.68,6.24-3.55,13.95-5.32,23.13-5.32s16.89,1.77,23.13,5.32c6.24,3.55,11.01,8.44,14.32,14.68,3.43,6.24,5.33,13.46,5.69,21.66.12,1.96.18,4.59.18,7.89s-.06,5.81-.18,7.89c-.37,8.08-2.2,15.29-5.51,21.66-3.3,6.24-8.08,11.13-14.32,14.68s-14.01,5.32-23.31,5.32ZM1256.13,336.02c7.59,0,13.65-2.39,18.17-7.16,4.53-4.89,6.97-11.99,7.34-21.29.12-1.84.18-4.16.18-6.97s-.06-5.14-.18-6.97c-.37-9.3-2.81-16.33-7.34-21.11-4.53-4.89-10.59-7.34-18.17-7.34s-13.7,2.45-18.35,7.34c-4.53,4.77-6.91,11.81-7.15,21.11-.12,1.84-.19,4.16-.19,6.97s.07,5.14.19,6.97c.24,9.3,2.63,16.4,7.15,21.29,4.65,4.77,10.77,7.16,18.35,7.16ZM1326.84,383.19c-1.22,0-2.26-.43-3.12-1.28-.73-.73-1.1-1.71-1.1-2.94v-121.87c0-1.22.37-2.2,1.1-2.94.86-.86,1.89-1.28,3.12-1.28h8.44c1.22,0,2.2.43,2.94,1.28.86.73,1.29,1.71,1.29,2.94v8.08c2.94-4.04,6.85-7.4,11.75-10.09,4.89-2.69,11.01-4.04,18.35-4.04,6.85,0,12.66,1.16,17.43,3.49,4.89,2.32,8.88,5.51,11.93,9.54,3.18,4.04,5.56,8.63,7.15,13.77,1.59,5.14,2.45,10.65,2.57,16.52.12,1.96.19,4.04.19,6.24s-.07,4.28-.19,6.24c-.12,5.75-.98,11.26-2.57,16.52-1.59,5.14-3.97,9.73-7.15,13.77-3.06,3.92-7.04,7.1-11.93,9.54-4.77,2.32-10.58,3.49-17.43,3.49s-13.09-1.28-17.99-3.85c-4.77-2.69-8.69-6-11.75-9.91v42.58c0,1.22-.37,2.2-1.1,2.94-.73.86-1.78,1.28-3.12,1.28h-8.81ZM1365.75,335.29c6.36,0,11.32-1.35,14.87-4.04,3.67-2.81,6.3-6.42,7.89-10.83,1.59-4.53,2.51-9.36,2.76-14.5.12-3.55.12-7.1,0-10.65-.24-5.14-1.17-9.91-2.76-14.32-1.59-4.53-4.22-8.14-7.89-10.83-3.55-2.81-8.51-4.22-14.87-4.22-6,0-10.89,1.41-14.68,4.22-3.67,2.81-6.42,6.42-8.25,10.83-1.71,4.28-2.69,8.69-2.94,13.21-.12,1.96-.19,4.28-.19,6.97s.07,5.08.19,7.16c.12,4.28,1.1,8.5,2.94,12.66,1.96,4.16,4.83,7.59,8.62,10.28s8.57,4.04,14.32,4.04ZM1469.76,350.15c-12.6,0-22.64-3.85-30.1-11.56-7.46-7.83-11.57-18.48-12.3-31.94-.12-1.59-.18-3.61-.18-6.06,0-2.57.06-4.65.18-6.24.49-8.69,2.51-16.27,6.06-22.76,3.55-6.61,8.38-11.69,14.49-15.23,6.24-3.55,13.53-5.32,21.85-5.32,9.3,0,17.06,1.96,23.3,5.87,6.36,3.92,11.2,9.48,14.5,16.7,3.3,7.22,4.95,15.66,4.95,25.33v3.12c0,1.35-.42,2.39-1.28,3.12-.73.73-1.71,1.1-2.94,1.1h-63.5v1.65c.24,5.02,1.35,9.73,3.3,14.13,1.96,4.28,4.77,7.77,8.44,10.46,3.67,2.69,8.08,4.04,13.21,4.04,4.4,0,8.08-.67,11.01-2.02,2.94-1.35,5.32-2.81,7.15-4.4,1.84-1.71,3.06-3,3.67-3.85,1.1-1.59,1.96-2.51,2.57-2.75.61-.37,1.59-.55,2.94-.55h8.81c1.22,0,2.2.37,2.94,1.1.86.61,1.22,1.53,1.1,2.75-.12,1.84-1.1,4.1-2.94,6.79-1.84,2.57-4.46,5.14-7.89,7.71-3.43,2.57-7.59,4.71-12.48,6.42-4.89,1.59-10.52,2.39-16.89,2.39ZM1444.8,293.62h50.29v-.55c0-5.51-1.04-10.4-3.12-14.68-1.96-4.28-4.83-7.65-8.62-10.09-3.79-2.57-8.32-3.85-13.58-3.85s-9.79,1.28-13.58,3.85c-3.67,2.45-6.48,5.81-8.44,10.09-1.96,4.28-2.94,9.18-2.94,14.68v.55Z"></path>
  <path class="cls-2" d="M210.51,348.56c19.17,24.34,44.36,42.96,73.48,54.14,2.87,1.11,5.89,1.66,8.91,1.66s6.03-.55,8.9-1.66c32.68-12.55,60.43-34.43,80.25-63.29,17.27-25.14,27.43-54,29.75-84.16-47.62,52.33-122.31,88.8-201.28,93.3Z"></path>
  <path class="cls-2" d="M412.3,196.82c0-3.45-1.12-6.87-3.16-9.65-2.06-2.8-5.02-4.91-8.42-5.95-70.54-20.95-145.11-20.95-215.72.02-3.32,1.02-6.29,3.13-8.35,5.93-2.06,2.8-3.18,6.26-3.17,9.7v44.92c-.02,33.75,9.71,66.33,28.16,94.49,67.48-5.43,148.64-39.64,210.65-139.45Z"></path>
  <path class="cls-1" d="M191.23,194.17c-16.94,6.29-1.75,84.83,0,74.36,2.82-16.94-6.5-51.05,27.3-70.13,36.24-13.18,115.31-15.26,104.48-19.77-16.87-7.03-98.83,3.29-131.78,15.53Z"></path>
</svg>
