<?xml version="1.0" encoding="UTF-8"?>
<svg xmlns="http://www.w3.org/2000/svg" id="Layer_1" viewBox="0 0 1667.23 563.76">
  <defs>
    <style>.cls-1{fill:#fff;}.cls-2{fill:#333;}</style>
  </defs>
  <rect class="cls-2" width="1667.23" height="563.76" rx="129.04" ry="129.04"></rect>
  <path class="cls-1" d="M416.57,363.89c-8.99-7.15-17.99-14.3-27.51-21.88-7.31,11.7-14.34,22.95-21.71,34.75-7.55-6.99-14.77-13.67-22.67-20.98-12.18,19.51-24.13,38.66-36.53,58.52-12.32-19.89-24.24-39.15-36.3-58.62-7.59,7.06-14.83,13.79-22.69,21.11-7.34-11.76-14.44-23.12-21.73-34.8-9.71,7.73-18.96,15.09-28.21,22.46-.33-.24-.65-.47-.98-.71,1.26-2.89,2.5-5.79,3.78-8.67,11.53-26.01,16.1-53.37,16.38-81.68.16-16.04.17-32.18,2.01-48.07,1.04-9.04,5.63-17.68,8.61-26.5.63-.05,1.26-.1,1.89-.15,4.34,5.16,8.83,10.2,12.9,15.56.87,1.14.5,3.49.2,5.2-.48,2.65-1.46,5.21-2.11,7.83-3.83,15.5,5.21,29.63,20.94,32.74,3.5.69,7.03,1.24,10.35,1.82,1.54,8.7-.7,14.7-8.82,18.47-6.49,3.01-12.45,7.18-19.72,11.48,3.93,2.26,6.93,4.5,10.3,5.83,17.93,7.05,27.98,20.76,33.69,38.51,5.58,17.35,11.47,34.59,17.25,51.87.56,1.68,1.34,3.3,2.55,6.26,3.06-8.87,5.7-16.53,8.35-24.19,5.02-14.49,9.94-29.01,15.12-43.44,4.51-12.57,13.38-21.14,25.31-26.85,4.68-2.24,9.18-4.86,14.88-7.9-6.95-4.07-12.66-8.21-18.98-10.9-8.37-3.56-11.18-9.42-9.89-18.46,3.39-.78,7.05-1.57,10.68-2.45,19.26-4.66,26.63-24.14,19.76-37.6-2.32-4.54-1.56-8.59,2.08-12.34,3.39-3.48,6.42-7.31,10.01-11.46.93,1.29,1.86,2.28,2.45,3.44,6.33,12.61,9.52,25.93,9.92,40.1.62,22.35,1.18,44.74,2.97,67.02,1.3,16.27,7.12,31.61,13.67,46.55,1.06,2.42,1.95,4.91,2.92,7.37l-1.1.76Z"></path>
  <path class="cls-1" d="M391.85,166.25c-4.77,13.16-12.24,24.39-22.52,32.91-13.42,11.13-27.91,20.99-42.2,31.04-1.68,1.18-5.32.85-7.45-.12-7.79-3.52-15.21-3.53-22.97.07-2.11.97-5.52,1.16-7.47.12-24.75-13.25-45.72-30.84-61.03-54.65-1.82-2.83-3.04-6.04-4.54-9.08.33-.35.67-.7,1-1.06,2.64,1.87,5.29,3.73,7.93,5.6,9.46,6.72,9.53,6.82,18.41-.45,10.34-8.46,21.63-15.07,34.68-18.24,30.38-7.37,57.55-.84,81.43,19.3,6.78,5.72,6.72,5.8,14.25,1.12,3.5-2.18,6.99-4.37,10.49-6.56Z"></path>
  <path class="cls-1" d="M468.76,321.8v-99.53c4.66,0,9.11-.06,13.56.01,12.26.21,24.65-.56,36.76.93,24.89,3.05,37.13,16.02,39.86,40.86,1.53,13.95-.13,27.51-8.56,39.32-9.3,13.02-23.07,17.61-38.17,18.27-14.23.63-28.5.14-43.44.14ZM492.43,304.16c14.95.73,29.18,1.31,37.85-13.4,6.65-11.29,5.75-31.72-1.93-41.25-9.56-11.87-22.78-10.02-35.92-9.6v64.26Z"></path>
  <path class="cls-1" d="M634.09,263.49v15.98h-38.78v24.78h44.77v17.35h-68.44v-98.91h68.43v16.75h-44.76v24.06h38.77Z"></path>
  <path class="cls-1" d="M698.76,284.73c-6.85,11.42-13.46,22.16-19.75,33.09-1.75,3.04-3.63,4.38-7.23,4.2-6.24-.31-12.51-.09-19.87-.09,5.88-9.49,11.24-18.15,16.62-26.8,4.48-7.2,8.81-14.5,13.55-21.52,2.08-3.08,1.67-5.34-.18-8.25-8.13-12.79-16.07-25.7-24.06-38.57-.73-1.18-1.33-2.43-2.45-4.5,7.89,0,15.02-.24,22.12.19,1.58.1,3.43,2.29,4.45,3.95,5.55,9.07,10.87,18.28,16.76,28.27,1.82-2.88,3.33-5.17,4.73-7.52,4.15-6.98,8.35-13.92,12.34-20.99,1.58-2.81,3.44-4.15,6.83-4,6.26.28,12.55.08,19.9.08-4.64,7.86-8.79,14.95-12.99,22-4.34,7.28-8.59,14.63-13.17,21.76-1.74,2.71-1.5,4.64.11,7.27,9.13,14.93,18.08,29.97,27.07,44.98.53.89.98,1.84,1.94,3.63-7.98,0-15.27.17-22.53-.16-1.3-.06-2.84-1.95-3.7-3.34-5.74-9.39-11.31-18.88-16.97-28.32-.99-1.66-2.13-3.23-3.53-5.35Z"></path>
  <path class="cls-1" d="M273.22,291.7c1.33-1.02,1.93-1.78,2.68-2.02,9.76-3.1,11.71-10.77,12.62-19.79.66-6.51,1.93-13.4,4.84-19.16,6.42-12.71,22.75-13.04,29.5-.54,3.23,5.98,5.04,13.24,5.52,20.06.62,8.81,2.21,16,11.57,19.09.79.26,1.42,1.03,3.01,2.24-20.73,13.08-27.53,34.33-34.54,55.97-7.95-20.98-13.47-43.32-35.2-55.85Z"></path>
  <path class="cls-1" d="M1279.96,299.86v-77.7h9.94v97.26c-5.55,1.41-9.52.62-13.21-4.66-16.23-23.21-32.95-46.08-49.51-69.06-.99-1.37-2.08-2.66-4.1-5.22v79.09h-9.75v-97.26c5.48-1.58,9.29-.36,12.8,4.64,16.28,23.18,32.96,46.07,49.5,69.06,1.04,1.44,2.17,2.81,3.26,4.21.36-.12.71-.24,1.07-.36Z"></path>
  <path class="cls-1" d="M1446.58,279.09c7.61,13.65,14.95,26.82,22.39,40.17-10.81,1.92-11.01,1.79-15.47-6.49-5.21-9.69-10.45-19.37-15.84-28.96-.77-1.37-2.39-3.15-3.68-3.21-7.18-.31-14.38-.15-22.14-.15v39.12h-9.76v-97.85c2.96,0,5.94-.02,8.92,0,9.2.09,18.43-.22,27.61.38,13.77.9,23.93,9.82,26.48,22.37,2.86,14.08-2.98,26.38-15.67,33.04-.78.41-1.55.85-2.84,1.57ZM1412.05,271.23c8.35,0,16.27.12,24.19-.03,10.86-.2,18.42-7.63,19.31-18.72.84-10.38-5.86-19.76-16.28-20.85-8.87-.93-17.91-.19-27.22-.19v39.79Z"></path>
  <path class="cls-1" d="M962.81,222.65c13.75,0,27.52-1.14,41.02.33,12.66,1.38,20.46,11.43,22.32,24.53,1.73,12.16-4.07,23.57-14.95,29.41-1.25.67-2.46,1.41-3.93,2.25,7.47,13.4,14.82,26.59,22.24,39.9-10.05,2.36-10.76,2.09-15.29-6.15-5.3-9.65-10.38-19.42-15.92-28.92-1.01-1.72-3.71-3.29-5.74-3.43-6.44-.44-12.94-.16-20-.16v39.1h-9.76v-96.88ZM972.82,231.08v39.68c.95.2,1.47.4,1.99.4,7.04.04,14.08.11,21.12.05,11.85-.1,19.89-7.84,20.27-19.4.37-11.44-7.31-20.04-19.06-20.65-7.91-.41-15.86-.08-24.33-.08Z"></path>
  <path class="cls-1" d="M767.37,289.92h9.7c2.39,4.68,3.92,9.48,6.88,13.13,8.75,10.79,27.46,12.26,38.28,3.52,10.66-8.61,8.96-22.55-3.73-27.67-6.32-2.55-13.14-3.82-19.69-5.81-4.3-1.31-8.62-2.67-12.78-4.36-22.2-9.03-16.95-33.43-3.49-42.52,17.93-12.11,45.7-4.84,52.85,14.34.96,2.59,1.24,5.43,1.92,8.58h-9.81c-5.64-16.99-19.93-23.93-35.46-17.23-6.68,2.89-10.71,7.84-10.88,15.39-.17,7.42,4.6,11.12,10.76,13.22,6.81,2.32,13.82,4.07,20.73,6.12,3.11.92,6.25,1.78,9.26,2.97,9.92,3.92,16.98,10.07,17.25,21.79.27,12.17-5.22,20.73-15.83,26.15-17.93,9.17-42,2.92-51.02-13.5-2.26-4.11-3.19-8.95-4.96-14.12Z"></path>
  <path class="cls-1" d="M1109.68,310.83v8.72h-59.63v-97.33h59.52v8.51h-49.19v34.92h43.64v9.3h-43.63v35.87h49.28Z"></path>
  <path class="cls-1" d="M1377.23,310.92v8.63h-59.63v-97.38h59.58v8.58h-49.51v35.01h43.99v9.18h-44.05v35.98h49.62Z"></path>
  <path class="cls-1" d="M1185.59,275.18h-43.84v35.6h49.27v8.83h-59.14v-97.56h59.24v8.79h-49.35v34.63h43.82v9.71Z"></path>
  <path class="cls-1" d="M936.46,290.41c-2.35,17.07-16.71,28.37-31.97,30.5-25.65,3.58-45.81-10.5-50.55-36-3.06-16.44-2.14-32.58,7.79-46.8,10.68-15.29,26.04-20.07,43.81-16.8,15.7,2.89,26.32,12.05,30.44,27.93.13.51.14,1.06.21,1.57-7.27,2.28-8.59,1.62-11.77-4.71-5.18-10.3-13.99-15.32-25.18-16.19-12.33-.96-22.8,3.32-29.18,13.99-10.6,17.73-10.52,36.23-.05,53.97,6.57,11.13,17.43,15.29,30.18,14.07,12.11-1.16,21.11-6.81,25.66-18.56,2.29-5.91,6.94-2.03,10.61-2.96Z"></path>
  <path class="cls-1" d="M331.98,243.76c9.53-6.01,18.41-11.61,27.28-17.21,3.73,5.86,3.33,11.16-.86,15.53-5.84,6.08-17.56,7.15-26.42,1.68Z"></path>
  <path class="cls-1" d="M256.89,226.3c9.29,5.89,18.18,11.52,27.28,17.28-7.26,5.36-18.55,4.93-25.01-.51-4.99-4.21-5.84-9.35-2.27-16.77Z"></path>
</svg>
