<?xml version="1.0" encoding="UTF-8"?>
<svg xmlns="http://www.w3.org/2000/svg" id="Layer_1" viewBox="0 0 1667.23 563.76">
  <defs>
    <style>.cls-1{fill:#fff;}.cls-2{fill:#05a3c9;fill-rule:evenodd;}.cls-3{fill:#333;}</style>
  </defs>
  <rect class="cls-3" width="1667.23" height="563.76" rx="129.04" ry="129.04"></rect>
  <path class="cls-1" d="M1047.83,248.91c-19.63,2.44-34.1,13.59-39.43,30.22-3.66,11.31-3.22,22.07,1.39,32.99,5.43,12.92,17.13,22.13,32.66,25.62,4.49,1.05,16.08,1.11,20.74.22,18.02-3.55,30.61-14.75,35.82-31.72,1.22-4.05,1.39-5.27,1.39-12.48s-.17-8.43-1.39-12.48c-5.16-16.75-17.3-27.78-34.66-31.44-3.6-.72-13.47-1.28-16.52-.94ZM1058.81,270.93c6.49,1.72,12.64,5.93,15.47,10.87,4.38,7.43,4.21,17.25-.33,24.34-8.15,12.81-26.78,14.92-37.98,4.27-9.32-8.87-9.65-22.96-.78-32.55,5.93-6.32,15.36-9.04,23.62-6.93Z"></path>
  <path class="cls-1" d="M1143.76,248.91c-19.63,2.44-34.1,13.59-39.43,30.22-3.66,11.31-3.22,22.07,1.39,32.99,5.43,12.92,17.13,22.13,32.66,25.62,4.49,1.05,16.08,1.11,20.74.22,18.02-3.55,30.61-14.75,35.82-31.72,1.22-4.05,1.39-5.27,1.39-12.48s-.17-8.43-1.39-12.48c-5.16-16.75-17.3-27.78-34.66-31.44-3.6-.72-13.47-1.28-16.52-.94ZM1154.8,270.93c6.54,1.72,12.64,5.93,15.47,10.87,4.38,7.43,4.21,17.25-.33,24.34-8.15,12.81-26.78,14.92-37.98,4.27-9.32-8.87-9.65-22.96-.78-32.55,5.88-6.32,15.3-9.04,23.62-6.93Z"></path>
  <path class="cls-1" d="M1272.96,249.19c-11.42,1.66-20.02,8.98-22.79,19.52-2.66,9.93-.78,20.07,4.55,25.01,3.16,2.94,6.93,4.66,17.3,7.99,10.04,3.22,12.31,4.6,13.36,7.99,1.16,3.88-1.72,8.54-6.1,9.76-2.38.67-6.88.67-9.87-.06-3.27-.78-9.15-3.66-11.64-5.82-1.11-1.05-2.38-1.83-2.61-1.83s-1.5,1.89-2.72,4.21c-1.72,3.27-2.27,3.99-2.38,3.11l-.17-1.11h-26.67v-67.21h-22.07v86.17h48.69v-2.38c0-1.28.11-2.33.22-2.33s2.11.94,4.44,2c7.21,3.38,11.81,4.38,20.74,4.38s12.81-.78,18.19-3.38c4.27-2.05,10.04-7.76,11.98-11.76,3.83-7.99,4.38-18.74,1.16-25.56-.55-1.28-2.44-3.77-4.21-5.49-3.77-3.77-7.82-5.82-18.19-9.15-4.1-1.28-8.21-2.83-9.15-3.38-3.33-2.05-3.99-6.54-1.39-9.37,4.55-4.88,12.64-4.44,21.07,1.16l1.66,1.05,4.49-8.6c2.38-4.66,4.38-8.6,4.27-8.65-.5-.5-6.77-2.99-10.31-4.1-7.49-2.33-15.36-3.16-21.85-2.16Z"></path>
  <path class="cls-1" d="M653.01,281.58v56.78h20.07c11.03,0,22.57-.33,25.56-.67,24.79-3.05,43.09-18.08,48.96-40.15,1.94-7.32,2.38-20.18,1-27.84-2.83-14.86-10.54-26.84-22.4-34.93-5.32-3.66-10.09-5.66-17.74-7.76-5.99-1.61-6.93-1.61-30.78-1.94l-24.62-.28v56.78h-.06ZM696.82,247.97c15.58,3.33,25.95,16.36,25.95,32.66-.06,10.81-3.38,20.13-9.59,26.28-6.16,6.21-15.3,9.21-28.06,9.26h-6.04v-69.09h6.71c3.66,0,8.6.44,11.03.89Z"></path>
  <path class="cls-1" d="M757.98,281.63v56.73l47.8-.06h47.74l12.31-17.3c6.82-9.43,12.53-17.19,12.7-17.19.28,0,5.99,7.76,12.75,17.3l12.37,17.3h15.53c8.48,0,15.47-.22,15.47-.39,0-.22-9.15-12.98-20.18-28.34l-20.18-27.95,19.3-26.95c10.65-14.75,19.91-27.45,20.52-28.17,1.22-1.22,1.22-1.05,1.22,10.31v11.53h23.51v89.94h28.06v-89.94l13.7-.11,13.64-.22-7.32-11.53-7.32-11.53-47.91-.06h-47.97l-12.31,17.3c-6.82,9.43-12.53,17.19-12.7,17.3-.22,0-5.93-7.76-12.7-17.3l-12.37-17.3h-95.54v56.62h-.11ZM842.33,253.24c10.98,15.19,19.96,27.95,19.96,28.34s-8.98,13.25-20.02,28.56l-20.07,27.84-.22-10.87-.11-10.87h-37.82v-25.45h30.61v-21.52h-30.61v-22.18h37.82v-10.76c0-5.93.11-10.76.28-10.76.17,0,9.21,12.48,20.18,27.67Z"></path>
  <path class="cls-2" d="M455.05,149.6c-17.74,9.26-32.33,17.08-32.27,17.41,0,.83,42.64,22.4,44.14,22.35.67,0,5.66-2.33,11.09-5.1l9.87-5.05,10.76,5.55,10.76,5.55,17.63-7.93c26.51-11.92,29.28-13.25,28.83-13.64-.55-.61-10.09-5.71-35.93-19.3-12.48-6.54-24.57-13.03-26.89-14.31-2.33-1.33-4.55-2.33-4.94-2.33s-15.3,7.54-33.05,16.8ZM377.14,189.97l-18.52,9.54v41.92c0,23.07.22,41.92.55,41.92.28,0,9.37-3.94,20.24-8.76l19.69-8.76v-44.2l9.59,5.21c7.43,4.05,14.81,8.04,22.24,12.09l12.64,6.82,5.6-2.55c3.55-1.61,7.04-3.22,10.54-4.82,2.72-1.28,9.37-4.27,14.81-6.65,5.43-2.38,10.42-4.82,11.15-5.38.94-.72-10.59-7.1-42.64-23.57-24.18-12.42-44.75-22.51-45.69-22.46-.94.06-10.04,4.38-20.18,9.65ZM559.13,192.63c-12.59,5.71-22.9,10.59-22.9,10.87s6.88,4.38,15.25,9.09c8.43,4.71,15.25,8.82,15.25,9.15s-7.43,3.94-16.52,7.99c-9.09,4.1-32.05,14.47-51.07,23.07l-63.6,28.78c-16.03,7.21-30.44,13.75-32.05,14.47-32.66,14.81-41.7,18.91-42.92,19.63-1.22.72-1.5,4.82-1.72,25.51l-.28,24.68,16.52,8.43,16.52,8.43,22.96-10.37c12.59-5.71,22.96-10.65,22.96-11.03s-2.33-1.89-5.16-3.38c-2.83-1.5-8.71-4.82-13.09-7.38-4.33-2.55-8.65-4.88-9.59-5.21-.94-.33-1.72-.83-1.72-1.22,0-.33,10.09-5.16,22.46-10.65,23.96-10.7,42.25-18.96,81.57-36.76,17.58-7.93,35.16-15.91,52.79-23.84,15.47-6.99,33.44-15.14,39.93-18.13l11.81-5.43.28-24.95.28-24.95-16.75-8.54c-9.21-4.71-17.13-8.6-17.52-8.6-.44,0-11.09,4.71-23.68,10.37ZM612.09,282.68c-2.5,1.22-7.38,3.49-10.87,5.05s-10.15,4.55-14.75,6.65l-8.37,3.83-.17,21.9c-.11,12.03-.55,21.85-1,21.79-1-.17-16.69-8.21-32.49-16.69-11.42-6.1-12.14-6.38-14.81-5.05-1.55.78-10.81,4.94-20.57,9.21-9.76,4.33-18.08,8.1-18.47,8.48-.39.33,19.24,10.98,43.7,23.68l44.36,23.07,18.96-9.81c10.42-5.38,19.3-10.31,19.69-10.92.94-1.39.83-83.57-.06-83.46-.39.06-2.72,1.05-5.16,2.27ZM507.06,379.12c-3.27,1.39-6.6,2.83-9.87,4.27-9.93,4.27-7.99,4.44-19.8-1.44-7.87-3.94-11.26-5.1-12.75-4.55-1.11.44-10.59,4.71-21.13,9.48-10.48,4.77-19.46,8.71-19.91,8.71-4.44,0,2.94,4.38,31.22,18.63l33.16,16.75,13.97-6.88c7.65-3.77,23.18-11.37,34.38-16.86,11.26-5.49,20.3-10.09,20.13-10.31-.17-.17-9.59-4.99-20.96-10.76l-20.63-10.42-7.82,3.38Z"></path>
</svg>
