<?xml version="1.0" encoding="UTF-8"?>
<svg xmlns="http://www.w3.org/2000/svg" xmlns:xlink="http://www.w3.org/1999/xlink" id="Layer_1" viewBox="0 0 1667.23 563.76">
  <defs>
    <style>.cls-1{fill:#fff;}.cls-2{fill:#010202;}.cls-3{fill:#fbfbfb;}.cls-4{fill:#333;}.cls-5{fill:url(#linear-gradient);}</style>
    <linearGradient id="linear-gradient" x1="399.44" y1="188.19" x2="573.41" y2="362.16" gradientUnits="userSpaceOnUse">
      <stop offset="0" stop-color="#72f655"></stop>
      <stop offset="1" stop-color="#25d5d8"></stop>
    </linearGradient>
  </defs>
  <rect class="cls-4" width="1667.23" height="563.76" rx="129.04" ry="129.04"></rect>
  <path class="cls-1" d="M1169.71,229.7c-7.32.35-15.59-.75-22.8-.1-3.38.31-6.45,2.71-8.52,5.28-.52.65-.52,1.33-.72,1.63-1.21,1.76-1.97,2.74-2.97,4.84-7.3,15.34-13.41,32.12-20.26,47.79-2.42,5.54-5.43,16.26-12.52,17.06-3.98.45-9.43-.03-13.61,0-8.32.06-16.73.18-25.04,0-3.12-.07-7.58,1.07-7.99-3.08-.4-4.04,4.44-13.77,6.18-17.97,6.1-14.73,13.57-29.8,19.04-44.66,1.26-3.43,3.7-9.85-1.89-10.79-4.44-.74-13.38-.2-18.24-.09-1.66.04-3.64-.18-5.23.03-3.52.48-8.1,4.98-9.84,7.95-10,25.58-23.17,50.92-32.65,76.6-3.19,8.64-4.28,17.65,6.98,19.86,14.54.19,29.1.07,43.64.09,8.34.02,16.7.03,25.04,0,8.71-.03,18.28.53,26.86,0,10.16-.63,18.59-7.31,23.23-15.97,1.32-2.46,2.64-5.09,3.81-7.63,9.81-21.38,19.59-44.91,28.3-66.79,1.85-4.64,5.49-11.16-.8-14.06Z"></path>
  <path class="cls-1" d="M1310.08,233.61c-1.64-2.01-4.13-3.08-6.81-3.54-26.93-.77-54.05-.54-81.03-.46-7.49.02-17.35-.77-24.5,0-1.73.19-3.3,1.22-4.66,2.24-6.86,5.18-11.28,19.79-14.76,27.89-8.74,20.32-18.3,41.17-26.3,61.72-1.68,4.31-4.33,10.23,1.46,12.67,7.51-.45,15.82.67,23.22.04,1.12-.1,1.72-.32,2.71-.74,11.88-5,12.39-32.31,24.33-35.74,4.17-1.2,14.12-.69,18.86-.55.71.02,1.44-.08,2.14.04l7.47,33c.41,2.15,2.55,3.87,4.7,4.01,11.83-.83,25.02,1.04,36.69,0,3.06-.27,5.14-1.6,5.21-4.87l-7.22-32.16c1.91.2,3.7-.36,5.52-.83,20.86-5.39,23.97-26.43,31.92-43.23.25-.53.43-.69.55-1.26,0,0,5.18-12.44.49-18.2ZM1268.4,262.54c-1.63,4.56-4.49,6.64-9.31,7.02-10.98.87-25.26.21-36.49-.01-4.46-.09-11.75,1.21-9.7-5.52,1.35-4.44,5-6.19,9.34-6.45,14.16-.84,29.13.63,43.38,0,3.57.55,3.92,1.8,2.79,4.97Z"></path>
  <path class="cls-1" d="M868.51,269.57c-8.52-.05-17.05,0-25.57-.02-18.19-.05-36.4.06-54.59-.03-3.93-.61-3.48-2.8-2.31-5.88,1.11-2.93,3.74-5.71,6.99-6.07,19.66-.06,39.33.09,58.98,0,6.39-.03,14.77.67,20.87,0,2.43-.26,5.93-2.26,7.64-3.98,1.88-1.9,7.07-13.67,7.8-16.51.94-3.64.14-6.68-3.86-7.43-10.82-.08-21.64,0-32.45-.03-24.52-.06-49.28-.55-73.68.73-11.08,2.42-18.94,10.09-23.66,20.08-11.32,23.97-20.09,49.84-31.33,73.93-1.27,3.21-1.89,8.56,2.19,9.78,7.6-.47,16.09.7,23.59.04,1.31-.12,1.91-.37,3.05-.95,9.76-4.91,13.55-26.71,19.98-35.92,1.75-2.51,3.09-3.33,6.18-3.8,21.53-.1,43.08.13,64.61,0,8.37-.05,19.08,2.16,24.02-6.28,1.2-2.04,5.11-11.11,5.04-13.14-.06-1.83-1.61-4.21-3.5-4.51Z"></path>
  <path class="cls-1" d="M1016.82,229.78c-7.62-1.19-20.14-.14-28.33-.16-14.39-.05-28.8-.08-43.19,0-17.02.09-30.55-2.51-42.84,11.79-2.79,3.24-4.04,6.21-5.8,9.99-9.57,20.59-17.25,42.13-26.67,62.8-2.62,6.21-4.23,15.48,3.34,18.79,4.97,2.17,18.02,1.14,24.06,1.17,13.91.07,27.84.04,41.74,0,10.87-.03,24.06.92,34.62-.05,4.97-.46,10.79-3.31,14.58-6.48.46-.39.46-1.03.53-1.09,10.36-9.37,14.99-26.97,20.52-39.91,5.16-12.08,11.76-25.03,16.06-37.3,3.03-8.63,1.97-17.89-8.61-19.53ZM980.31,269.54c-3.38,8.75-7.91,19.9-12.08,28.2-1.7,3.39-4.54,7.88-8.62,8.43-5.64.77-14.45,0-20.48.03-6.8.03-17.42.86-23.75-.02-4.4-.61-2.49-6.4-1.57-9.14,1.87-5.53,5.06-12.49,7.46-17.95,2.27-5.16,6.26-15.67,10.42-18.98,4.22-3.35,8.59-2.47,13.6-2.55,11.05-.17,22.13.1,33.18.03,6.68,1.44,3.49,7.66,1.84,11.93Z"></path>
  <path class="cls-2" d="M400.48,256.06c5.28-5.21,11.15-8.08,18.46-9.33.06-1.92.37-3.9.46-5.8.32-7.26.35-14.79.54-22.02.52-19.58-.56-41.46,1.15-60.69s14.09-30.75,33.72-27.14c14.56,2.68,22.41,14.7,22.95,28.99.1,2.67-.51,5.03-.53,7.35-.14,18.23-.83,36.39-1.21,54.65l37.06-82.99c12.94-29.64,55.96-17.8,53.78,13.6-.25,3.62-1.57,7.05-2.15,10.59,23.58-22.43,58.6,7.09,43.61,34.79l-25.71,42.4c2.01-1.1,3.86-2.71,5.61-4.18,8.69-7.32,18.38-18.18,30.12-19.86,20.36-2.91,36.27,19.25,29.31,38.13-6,16.25-37.83,35.36-49.57,51.37-15.52,21.16-18.62,36.31-26.4,60.33-12.42,38.32-48.6,73.77-90.24,76.36-37.1,2.31-85.94-20.32-105.03-52.79-22.97-39.07-3.64-80,13.05-117.1,2.86-6.35,6.01-11.69,11.04-16.65ZM504.19,195.12c-3.93,8.8-7.83,17.67-11.76,26.46-5.02,11.21-10.23,24.16-15.75,34.96-2.06,4.03-4.13,5.82-8.95,5.17s-7.06-4.68-7.15-9.26c-.19-10.4.73-21.35.98-31.85.05-1.98.49-4.62.49-6.12v-16.66c0-3.08.42-6.75.49-10.04.2-8.88,1.48-21.17.49-29.4-.56-4.66-2.37-9.75-6.91-11.96-5.95-2.9-14.28-2.53-17.98,3.48s-2.8,19.6-3.04,27.09c-.31,9.8-.23,19.6-.49,29.4-.28,10.55-.7,21.25-.98,31.85s.14,22.05-.49,32.34c-.11,1.73-.3,4.98-.6,6.5-.74,3.72-5.67,6.09-9.2,5.26-.55-.13-3.25-2.31-3.69-2.92-2.36-3.28-1.08-13.48-.72-17.66-.82-.71-4.93,1.57-5.84,2.24-9.39,6.81-16.21,28.44-20.61,39.41-3.43,8.55-6.37,14.95-8.82,24.01s-3.68,14.88-3.43,24.5c.19,7.18,1.22,12.38,3.43,19.11,1.99,6.07,4.14,10.5,7.84,15.68,3.88,5.43,7.44,8.88,12.25,13.23,2.87,2.6,4.6,4.09,7.84,6.37,6.67,4.68,12.65,7.95,20.09,11.27,9.09,4.06,18.07,7.48,27.93,9.31,38.81,7.2,72.46-14.55,90.73-47.69,4.47-8.1,6.48-15.15,9.23-23.85,4.19-13.24,7.57-25.88,14.21-38.22,11.81-21.94,25.59-33.95,43.6-50.23,6.16-5.57,14.28-10.1,16.67-18.37.07-.24.79-.65.96-1.72.53-3.32-.34-6.33-1.97-9.17-.31-.54-.92-.34-.95-.38-.83-1.24-.49-1.99-2.44-3.68-7.55-6.51-14.47-1.33-20.82,3.69-18.24,14.41-35.36,31.31-53.5,45.97-3.26,3.16-10.77.72-11.44-3.35-.87-5.37,1.3-6.07,3.63-9.84,4.79-7.75,9.27-15.71,14.01-23.48,7.78-12.76,15.79-25.41,23.52-38.22,5.41-8.96,16.53-20.79,10.29-31.36-3.72-6.29-11.97-9.78-18.59-5.11-6.13,4.32-16.11,23.74-20.61,31.08-8.44,13.8-16.63,27.88-24.99,41.65-4.16,6.85-8.95,15.91-13.31,22.21-3.69,5.32-12.09,3.72-13.15-2.12-.22-1.2-.04-3.19.24-4.42.98-4.41,6.55-13.95,8.67-18.77.88-2.02,1.48-4.21,2.37-6.21,6.14-13.89,12.43-27.77,18.62-41.65,4-8.97,8.34-17.88,12.25-26.95,4.38-10.17,11.55-22.31-2.6-29.01-8.65-4.09-14.28.21-18.33,7.83-8.06,15.17-14.63,33.77-21.7,49.59Z"></path>
  <path class="cls-5" d="M633.02,237.64c-.31-.54-.92-.34-.95-.38-.83-1.24-.49-1.99-2.44-3.68-7.55-6.51-14.47-1.33-20.82,3.69-18.24,14.41-35.36,31.31-53.5,45.97-3.26,3.16-10.77.72-11.44-3.35-.87-5.37,1.3-6.07,3.63-9.84,4.79-7.75,9.27-15.71,14.01-23.48,7.78-12.76,15.79-25.41,23.52-38.22,5.41-8.96,16.53-20.79,10.29-31.36-3.72-6.29-11.97-9.78-18.59-5.11-6.13,4.32-16.11,23.74-20.61,31.08-8.44,13.8-16.63,27.88-24.99,41.65-4.16,6.85-8.95,15.91-13.31,22.21-3.69,5.32-12.09,3.72-13.15-2.12-.22-1.2-.04-3.19.24-4.42.98-4.41,6.55-13.95,8.67-18.77.88-2.02,1.48-4.21,2.37-6.21,6.14-13.9,12.43-27.77,18.62-41.65,4-8.97,8.34-17.88,12.25-26.95,4.38-10.17,11.55-22.31-2.6-29.01-8.65-4.09-14.28.21-18.33,7.83-8.06,15.17-14.63,33.77-21.7,49.59-3.93,8.8-7.83,17.67-11.76,26.46-5.02,11.21-10.23,24.16-15.75,34.96-2.06,4.03-4.13,5.82-8.95,5.17-4.93-.66-7.06-4.68-7.15-9.26-.19-10.4.73-21.35.98-31.85.05-1.98.49-4.62.49-6.12v-16.66c0-3.08.42-6.75.49-10.05.2-8.88,1.48-21.17.49-29.4-.56-4.66-2.37-9.75-6.91-11.96-5.95-2.9-14.28-2.53-17.98,3.48-3.8,6.18-2.8,19.6-3.04,27.09-.31,9.8-.23,19.6-.49,29.4-.28,10.55-.7,21.25-.98,31.85-.28,10.6.14,22.05-.49,32.34-.11,1.73-.3,4.98-.6,6.5-.74,3.72-5.67,6.09-9.2,5.26-.55-.13-3.25-2.31-3.69-2.92-2.36-3.28-1.08-13.48-.72-17.66-.82-.71-4.93,1.57-5.84,2.24-9.39,6.81-16.21,28.44-20.61,39.41-3.43,8.55-6.37,14.95-8.82,24.01-2.44,9.02-3.68,14.88-3.43,24.5.19,7.18,1.22,12.38,3.43,19.11,1.99,6.07,4.14,10.5,7.84,15.68,3.88,5.43,7.44,8.88,12.25,13.23,2.87,2.59,4.6,4.09,7.84,6.37,6.67,4.68,12.65,7.95,20.09,11.27,9.09,4.06,18.07,7.48,27.93,9.31,38.81,7.2,72.46-14.55,90.73-47.69,4.47-8.1,6.48-15.15,9.23-23.85,4.19-13.24,7.57-25.88,14.21-38.22,11.81-21.94,25.59-33.95,43.6-50.23,6.16-5.57,14.28-10.1,16.67-18.37.07-.24.79-.65.96-1.72.53-3.32-.34-6.33-1.97-9.17Z"></path>
  <path class="cls-3" d="M541.91,110.35c-.28,1.58.79.83,1.71.96,10.13,1.48,19.92,7.44,26.47,15.2,4.5,5.33,5.54,11.65,7.64,18.08,5.92-.86,12.41-.25,18.07,1.78,9.4,3.37,19.95,12.48,23.77,21.8,5.22,12.74,3.74,25.24-2.69,37.23h10.04c10.87,0,25.13,12.89,29.59,22.35,19.03,40.45-32.76,60.25-51.7,87.83-11.89,17.31-14.92,28.61-20.9,48.19-13.91,45.52-51.44,85.89-101.06,89.58-.94.07-14.21.05-15.15,0-50.37-3.13-110.46-41.96-112.47-96.8-.03-.94-.08-13.23,0-14.17,1.76-23.64,12.18-46.18,21.48-67.72,3.44-7.97,5.94-14.51,11.59-21.24,5.21-6.2,12.01-12.54,19.86-15.04.82-13.98.59-28.04.95-42.06.2-7.7.69-15.75.95-23.55.41-12.18-.92-21.49,4.71-33.01,12.52-25.62,48.08-26.48,65.37-5.49,3.22,3.9,8.37,16.04,8.37,20.92v12l14.77-33.01c6.3-11.81,14.98-19.74,28.19-22.79.89-.2,1.92.47,1.63-1.04h8.82ZM400.48,256.06c-5.02,4.95-8.18,10.29-11.04,16.65-16.69,37.1-36.02,78.03-13.05,117.1,19.09,32.47,67.93,55.1,105.03,52.79,41.64-2.59,77.83-38.04,90.24-76.36,7.78-24.02,10.87-39.17,26.4-60.33,11.74-16,43.58-35.11,49.57-51.37,6.96-18.88-8.95-41.03-29.31-38.13-11.74,1.68-21.43,12.54-30.12,19.86-1.75,1.47-3.6,3.09-5.61,4.18l25.71-42.4c15-27.7-20.02-57.22-43.61-34.79.57-3.54,1.9-6.97,2.15-10.59,2.18-31.4-40.84-43.23-53.78-13.6l-37.06,82.99c.38-18.27,1.07-36.43,1.21-54.65.02-2.32.63-4.68.53-7.35-.54-14.29-8.39-26.31-22.95-28.99-19.63-3.62-32.03,8.15-33.72,27.14s-.63,41.11-1.15,60.69c-.19,7.23-.21,14.76-.54,22.02-.08,1.9-.4,3.88-.46,5.8-7.31,1.24-13.18,4.12-18.46,9.33Z"></path>
</svg>
