<?xml version="1.0" encoding="UTF-8"?>
<svg xmlns="http://www.w3.org/2000/svg" id="Layer_1" version="1.1" viewBox="0 0 512 512">
  <defs>
    <style>
      .st0 {
        fill: #262c35;
      }

      .st1 {
        fill: #fcd249;
      }
    </style>
  </defs>
  <path class="st1" d="M481,305.8c-9.3,10.4-20.1,19.8-29.9,29.9-.3,37.8,5.5,74.5-28.2,100.1s-55,13.4-85.7,14.6c-26.6,23.7-44.7,54-85.7,51.3-36.1-2.4-51.6-29.7-76.3-51.1-19.4-2.1-40.7,2.3-59.6-2.4-23.3-5.8-42.5-23.1-50.2-45.8-7.1-21-2-43.8-4.1-65.7-24-27-53.4-44-51.1-85,2-35.9,29.4-52.9,51.3-77,1.2-33.5-5.9-63.6,18.5-90.6,26.3-29.1,59.8-22.5,95.4-23.3,28-26.6,45.5-54.2,89.2-50.4,32.2,2.8,49.4,30.3,71.2,50.1,33.8,1.7,63.9-5.6,91.5,18.4,29.2,25.3,23.2,61.9,23.8,96.6,19.3,22,46.7,38.4,50.2,70.2,2.7,24.9-4.3,42-20.3,60ZM203.3,194c0-14.7-11.9-26.7-26.7-26.7s-26.7,11.9-26.7,26.7,11.9,26.7,26.7,26.7,26.7-11.9,26.7-26.7ZM301.5,167.8c-15.3,1.1-41.4,8.3-53.1,18.5-14.7,12.7-.8,37,19.8,29.4,11.5-4.2,19-11.1,33-12.4,22.5-2.1,29.1,4.1,47.6,11.8s36.7-16.4,20-29.6-46.6-19.2-67.3-17.7ZM305.6,291.4c5.5.9,13-.7,18.8,0-11,42.6-59.2,65.2-99.2,45.5-19.7-9.6-34.4-28.9-38.6-50.4-1.1-5.8-.4-11.4-1.5-16.8-4.2-20.6-35.8-19-35.3,7.3.7,36.2,22.8,71.5,54.1,89,61.6,34.4,138.5.9,155.6-67,3.9-15.3,8.1-41.2-13.8-43.4s-29.6-1-38.4,0c-21,2.4-20.1,32.7-1.7,35.8Z"></path>
  <path class="st0" d="M305.6,291.4c-18.4-3-19.3-33.4,1.7-35.8,8.8-1,29.5-.9,38.4,0,21.9,2.2,17.6,28.2,13.8,43.4-17.1,67.9-94,101.4-155.6,67-31.3-17.5-53.4-52.8-54.1-89-.5-26.3,31-27.9,35.3-7.3,1.1,5.4.4,11,1.5,16.8,4.2,21.6,18.9,40.8,38.6,50.4,40,19.6,88.2-2.9,99.2-45.5-5.7-.7-13.3.9-18.8,0Z"></path>
  <path class="st0" d="M301.5,167.8c20.7-1.5,50.7,4.6,67.3,17.7s1.8,38.6-20,29.6-25.1-13.9-47.6-11.8c-14,1.3-21.5,8.1-33,12.4-20.6,7.6-34.5-16.7-19.8-29.4,11.7-10.2,37.8-17.4,53.1-18.5Z"></path>
  <circle class="st0" cx="176.6" cy="194" r="26.7"></circle>
</svg>
