<?xml version="1.0" encoding="UTF-8"?>
<svg xmlns="http://www.w3.org/2000/svg" id="Layer_1" viewBox="0 0 1667.23 563.76">
  <defs>
    <style>.cls-1{fill:#ffd633;}.cls-2{fill:#333;}</style>
  </defs>
  <rect class="cls-2" width="1667.23" height="563.76" rx="129.04" ry="129.04"></rect>
  <path class="cls-1" d="M979.93,294.57v-74.65c0-3.23,3.3-7.69,6.56-8.34,1.12-.22,3.39-.42,4.6-.5,7.68-.46,15.71.24,23.38.19l.31.47.07,129.67c-.18,6.25-2.69,10.26-9.22,10.77-5.5.43-16.61.57-21.98-.01-4.73-.51-6.23-4.89-8.5-8.36l-43.08-75.11v75.04c0,.26-.61,2.74-.76,3.16-.66,1.78-4.23,5.27-6.1,5.27h-28.05l-.02-125.61c.53-5.3-.24-13.4,6.66-14.9,5.08-1.1,16.78-.96,22.2-.58,6.3.44,7,2.29,10.05,7.2,14.52,23.34,27.6,48.74,41.44,72.63.69,1.2,1.41,2.76,2.42,3.65Z"></path>
  <path class="cls-1" d="M1162.33,211.11c.17.69-.29.78-.59,1.18-15.85,20.96-34.83,40.67-50.4,61.73-5.39,7.29-3.38,9.56,1.57,16.04l50.59,62.12h-35.5c-1.68,0-5.05-1.51-6.29-2.73-14.01-16.05-26.43-35.4-40.78-50.96-1.3-1.41-3.89-3.91-5.89-3.91h-9.61v57.6h-24.52c-.52,0-3.54-.42-4.13-.57-2.11-.54-5.36-3.81-5.78-5.98-.13-.69-.48-3.67-.48-4.22v-129.7l.59-.59h24.32c.36,0,2.91.38,3.44.48,2.53.51,6.56,4.1,6.56,6.77v48.59l.59.59h8.63c1.1,0,4.62-1.86,5.51-2.73l40.38-50.18c.86-.91,2.08-2.17,3.25-2.64.65-.26,3.28-.89,3.82-.89h34.72Z"></path>
  <path class="cls-1" d="M886.57,352.17h-31.97c-.99,0-5.02-2.72-5.44-3.96l-8.35-24.2-47.62.13c-2.8,6.87-4.21,14.74-7.04,21.58-.76,1.84-1.65,4.12-3.41,5.22-.49.31-2.68,1.24-3.07,1.24h-31.97l42.85-135.29c1.75-4.09,3.65-6.22,8.32-6.58,12.01-.9,25.15.71,37.28.02,2.82.32,4.73,2.06,6.41,4.18l44,137.67ZM833.61,301.23l-16.86-52.51-16.09,52.51h32.95Z"></path>
  <path class="cls-1" d="M529.81,211.11c1.15.09,3.56.47,4.63.87,2.76,1.03,5.24,4.19,5.37,7.17v94.84c.1,2.84,1.89,5.33,4.89,5.29,18.82,1.21,39.84-1.7,58.41.04,2.61.24,4.94.91,6.78,2.83,1.32,1.39,2.49,4.04,2.49,5.93v24.1h-97.87c-1.47-.52-3.06-.22-4.54-.56-2.59-.6-6.25-4.78-6.25-7.47v-133.04c8.47.5,17.7-.67,26.09,0Z"></path>
  <path class="cls-1" d="M634.24,210.02c22.02.76,45.1-1.33,67-.11,19.26,1.07,35.08,16.07,36.28,35.47.32,5.2.49,14.14-.02,19.21-.75,7.55-4.95,7.92-8.8,12.37-6.97,8.06,6.59,11.29,9.54,17.46,2.51,5.25,1.89,19.7,1.22,25.81-2.21,20.19-19.37,33.98-39.4,33.53-20.54-1.21-42.83,1.56-63.17-.02-4.48-.35-7.43-1.87-9.11-6.18-1.18-42.7-.15-85.64-.52-128.43.12-4.4,2.7-7.91,6.97-9.1ZM678.61,226.88c-11.42.42-19.5,12.24-15.42,23.02s11.32,14.53,12.34,28.42c1.11,14.97-4.12,19.72-10.51,31.42-12.31,22.52,18.13,36.14,28.87,18.66,7.32-11.91-1.05-18.27-6.01-27.93-6.15-11.97-6.06-25.97.14-37.89,3.9-7.5,10.34-12.72,8.2-22.16-1.8-7.95-9.39-13.83-17.61-13.53Z"></path>
  <path class="cls-2" d="M678.61,226.88c8.22-.3,15.8,5.58,17.61,13.53,2.14,9.44-4.3,14.66-8.2,22.16-6.19,11.92-6.29,25.91-.14,37.89,4.96,9.67,13.33,16.02,6.01,27.93-10.74,17.49-41.18,3.86-28.87-18.66,6.39-11.7,11.62-16.45,10.51-31.42-1.03-13.89-8.29-17.69-12.34-28.42s4-22.6,15.42-23.02Z"></path>
</svg>
