<?xml version="1.0" encoding="UTF-8"?>
<svg xmlns="http://www.w3.org/2000/svg" xmlns:xlink="http://www.w3.org/1999/xlink" id="Layer_1" viewBox="0 0 1667.23 563.76">
  <defs>
    <style>.cls-1{fill:#fff;}.cls-2{fill:#333;}.cls-3{fill:#1972e2;}.cls-4{fill:url(#linear-gradient);}.cls-5{fill:#3156aa;}</style>
    <linearGradient id="linear-gradient" x1="454.22" y1="305.96" x2="615.63" y2="246.31" gradientTransform="translate(0 566.48) scale(1 -1)" gradientUnits="userSpaceOnUse">
      <stop offset="0" stop-color="#264ca2" stop-opacity="0"></stop>
      <stop offset="1" stop-color="#234588"></stop>
    </linearGradient>
  </defs>
  <rect class="cls-2" x="0" y=".24" width="1667.23" height="563.76" rx="129.04" ry="129.04"></rect>
  <path class="cls-5" d="M673.27,295.01l-66.41-115.19c-14.56-24.01-50.06-24.26-64.11,1.02l-69.73,119.79c-13.03,21.97,3.06,49.55,29.12,49.55h139.71c26.31,0,45.97-28.35,31.42-55.17Z"></path>
  <path class="cls-3" d="M577.49,303.95l-4.09-7.15c-3.83-6.64-12.26-20.94-12.26-20.94l-56.19-97.57c-14.56-21.71-49.04-23.5-63.6,3.83l-65.39,113.15c-13.54,23.75,2.55,54.66,31.93,54.91h233.45c-36.01.26-47.51-18.39-63.85-46.23Z"></path>
  <path class="cls-4" d="M577.49,303.95l-4.09-7.15c-3.83-6.64-12.26-20.94-12.26-20.94l-36.27-63.85-52.1,88.88c-13.03,21.97,3.07,49.55,29.12,49.55h139.45c-36.27-.26-47.51-18.64-63.85-46.49Z"></path>
  <path class="cls-1" d="M898.7,339.96v-133.07h110.59v8.43c0,6.64-5.36,12-12,12h-71v35.76h71v20.43h-71v35.76h71c6.64,0,12,5.36,12,12v8.43l-110.59.26Z"></path>
  <path class="cls-1" d="M1168.16,206.89h-26.05c-4.85,0-9.19,2.04-12.26,5.87l-31.42,39.59-31.42-39.33c-3.06-3.83-7.41-5.87-12.26-5.87h-26.05l52.87,66.41-52.87,66.41h26.05c4.85,0,9.19-2.04,12.26-5.87l31.42-39.33,31.67,39.59c3.07,3.58,7.41,5.87,12.26,5.87h26.05l-52.87-66.41,52.62-66.92Z"></path>
  <path class="cls-1" d="M812.11,325.92l36.27-63.34v77.13h27.59v-133.07h-17.11c-5.36,0-10.47,2.81-13.03,7.66l-43.42,79.18-43.42-79.18c-2.55-4.85-7.66-7.66-13.03-7.66h-17.11v133.07h27.58v-77.13l36.27,63.34h19.41Z"></path>
  <path class="cls-1" d="M1240.18,341.49c-38.31.51-69.47-29.63-69.73-67.94,0-20.94,6.38-38.31,18.39-50.32,12-11.75,29.37-18.13,50.06-18.13,24.26,0,43.42,8.43,57.21,24.77l-8.68,7.41c-5.36,4.6-13.28,4.85-19.16.51-7.66-5.87-17.37-8.68-28.35-8.68-27.07,0-43.16,16.35-43.16,43.93s16.6,44.95,43.16,44.95c11.24,0,20.69-3.07,28.35-8.68,5.62-4.34,13.54-4.09,19.16.51l8.68,7.41c-13.79,16.09-32.18,24.26-55.94,24.26Z"></path>
</svg>
