<?xml version="1.0" encoding="UTF-8"?>
<svg xmlns="http://www.w3.org/2000/svg" id="Layer_1" viewBox="0 0 1667.23 563.76">
  <defs>
    <style>.cls-1{fill:#fedc90;}.cls-2,.cls-3{fill:#633001;}.cls-2,.cls-4{fill-rule:evenodd;}.cls-5{fill:#fff;}.cls-6{fill:#333;}.cls-4{fill:#d1884f;}</style>
  </defs>
  <rect class="cls-6" width="1667.23" height="563.76" rx="129.04" ry="129.04"></rect>
  <path class="cls-5" d="M404.35,341.83c-3.5,0-5.25-.88-7-1.75-.88-1.75-1.75-3.5-1.75-6.13v-98.02c0-2.63.88-5.25,1.75-6.13,1.75-1.75,3.5-2.63,7-2.63h41.13c15.75,0,27.13,3.5,35.01,9.63,7,7,11.38,16.63,11.38,29.76s-3.5,22.75-11.38,29.76c-7,6.13-19.25,9.63-35.01,9.63h-15.75v27.13c0,2.63-.88,5.25-1.75,6.13-1.75,1.75-3.5,1.75-7,1.75h-16.63v.88ZM442.85,281.44c4.38,0,7.88-.88,10.5-3.5,2.63-2.63,3.5-6.13,3.5-11.38s-.88-8.75-3.5-11.38c-2.63-2.63-6.13-3.5-10.5-3.5h-13.13v29.76h13.13Z"></path>
  <path class="cls-5" d="M531.24,344.46c-10.5,0-19.25-3.5-25.38-10.5-6.13-7-9.63-16.63-9.63-28.88,0-9.63,1.75-17.5,6.13-24.5,4.38-7,10.5-12.25,18.38-16.63,7.88-3.5,17.5-6.13,27.13-6.13,8.75,0,15.75.88,22.75,2.63,7,1.75,12.25,4.38,18.38,7.88v67.39c0,1.75,0,3.5-.88,4.38s-2.63.88-4.38.88h-17.5c-.88,0-2.63,0-2.63-.88q-.88-.88-1.75-1.75l-2.63-5.25c-3.5,3.5-7,6.13-11.38,7.88-4.38,2.63-10.5,3.5-16.63,3.5ZM543.5,321.7c4.38,0,7.88-.88,10.5-3.5,2.63-1.75,3.5-5.25,3.5-8.75v-26.26c-1.75-.88-5.25-1.75-7.88-1.75-6.13,0-10.5,1.75-14,6.13-3.5,4.38-5.25,9.63-5.25,17.5,0,10.5,4.38,16.63,13.13,16.63Z"></path>
  <path class="cls-5" d="M612.64,341.83c-3.5,0-5.25-.88-7-1.75-1.75-1.75-1.75-3.5-1.75-6.13v-68.26c0-1.75,0-3.5.88-4.38.88-.88,2.63-.88,4.38-.88h17.5c1.75,0,2.63,0,2.63.88.88,0,.88.88,1.75,1.75l.88,5.25c3.5-3.5,7-5.25,12.25-7,5.25-1.75,10.5-2.63,17.5-2.63,8.75,0,16.63,2.63,21.88,7.88,5.25,5.25,8.75,12.25,8.75,22.75v44.63c0,2.63-.88,5.25-1.75,6.13-.88,1.75-3.5,1.75-7,1.75h-16.63c-3.5,0-5.25-.88-7-1.75-1.75-1.75-1.75-3.5-1.75-6.13v-42.88c0-3.5-.88-6.13-2.63-7-1.75-1.75-3.5-2.63-7-2.63s-6.13.88-7.88,2.63c-1.75,1.75-2.63,4.38-2.63,7v42.01c0,2.63-.88,5.25-1.75,6.13-.88,1.75-3.5,1.75-7,1.75h-16.63v.88Z"></path>
  <path class="cls-5" d="M751.79,344.46c-15.75,0-28.01-3.5-36.76-11.38-8.75-7-13.13-17.5-13.13-31.51,0-8.75,1.75-15.75,6.13-22.75,3.5-6.13,9.63-11.38,16.63-14.88,7.88-3.5,16.63-5.25,26.26-5.25,7.88,0,14,.88,19.25,2.63,5.25,1.75,10.5,3.5,14,7,.88.88,1.75,1.75,1.75,2.63s-.88,1.75-1.75,3.5l-7,12.25c-.88,1.75-1.75,2.63-2.63,2.63s-1.75-.88-3.5-1.75c-2.63-1.75-6.13-3.5-8.75-4.38s-6.13-1.75-9.63-1.75c-5.25,0-10.5,1.75-14,5.25-3.5,3.5-5.25,8.75-5.25,14.88s1.75,11.38,5.25,14.88,7.88,5.25,14,5.25c3.5,0,7-.88,9.63-1.75,2.63-.88,6.13-2.63,8.75-4.38,1.75-.88,2.63-1.75,3.5-1.75s1.75.88,2.63,2.63l7.88,13.13c.88.88.88,1.75.88,2.63s-.88,1.75-1.75,2.63c-4.38,2.63-9.63,5.25-15.75,7-2.63,1.75-8.75,2.63-16.63,2.63Z"></path>
  <path class="cls-5" d="M831.43,344.46c-10.5,0-19.25-3.5-25.38-10.5-6.13-7-9.63-16.63-9.63-28.88,0-9.63,1.75-17.5,6.13-24.5,4.38-7,10.5-12.25,18.38-16.63,7.88-3.5,17.5-6.13,27.13-6.13,8.75,0,15.75.88,22.75,2.63,7,1.75,12.25,4.38,18.38,7.88v67.39c0,1.75,0,3.5-.88,4.38s-2.63.88-4.38.88h-17.5c-.88,0-2.63,0-2.63-.88l-1.75-1.75-2.63-5.25c-3.5,3.5-7,6.13-11.38,7.88-4.38,2.63-9.63,3.5-16.63,3.5ZM844.55,321.7c4.38,0,7.88-.88,10.5-3.5,2.63-1.75,3.5-5.25,3.5-8.75v-26.26c-1.75-.88-5.25-1.75-7.88-1.75-6.13,0-10.5,1.75-14,6.13-3.5,4.38-5.25,9.63-5.25,17.5-.88,10.5,3.5,16.63,13.13,16.63Z"></path>
  <path class="cls-5" d="M995.96,335.7c.88.88.88,1.75.88,2.63s0,1.75-.88,2.63c-.88.88-1.75.88-2.63.88h-29.76c-.88,0-1.75-.88-2.63-1.75l-22.75-31.51v24.5c0,2.63-.88,5.25-1.75,6.13-1.75,1.75-3.5,1.75-7,1.75h-16.63c-3.5,0-5.25-.88-7-1.75-.88-1.75-1.75-3.5-1.75-6.13v-97.14c0-2.63.88-5.25,1.75-6.13,1.75-1.75,3.5-2.63,7-2.63h16.63c3.5,0,5.25.88,7,2.63,1.75,1.75,1.75,3.5,1.75,6.13v56.01l21.88-28.88c.88-.88,1.75-1.75,2.63-1.75s1.75-.88,3.5-.88h26.26c.88,0,1.75,0,2.63.88.88.88.88,1.75.88,2.63s0,1.75-.88,2.63l-28.88,33.26,29.76,35.88Z"></path>
  <path class="cls-5" d="M1050.22,344.46c-9.63,0-17.5-1.75-25.38-4.38-7-3.5-13.13-7.88-17.5-14-4.38-6.13-6.13-14-6.13-22.75,0-14,4.38-25.38,12.25-32.38,7.88-7.88,20.13-11.38,35.01-11.38s26.26,3.5,33.26,11.38c7.88,7,11.38,17.5,11.38,30.63,0,5.25-2.63,8.75-7,8.75h-52.51c0,5.25,1.75,8.75,5.25,11.38s9.63,3.5,16.63,3.5c4.38,0,8.75,0,11.38-.88,3.5-.88,6.13-2.63,9.63-3.5,1.75-.88,2.63-.88,2.63-.88.88,0,1.75.88,2.63,1.75l6.13,10.5c.88.88.88,1.75.88,2.63s-.88,1.75-1.75,2.63c-4.38,2.63-9.63,5.25-15.75,7-7-.88-13.13,0-21,0ZM1063.35,291.95c0-4.38-.88-7.88-3.5-9.63-2.63-2.63-6.13-3.5-11.38-3.5s-8.75.88-11.38,3.5c-2.63,2.63-3.5,5.25-3.5,9.63h29.76Z"></path>
  <path class="cls-5" d="M1151.74,344.46c-9.63,0-18.38-.88-27.13-2.63-8.75-1.75-14.88-5.25-20.13-8.75-1.75-.88-2.63-2.63-2.63-3.5s0-1.75.88-2.63l7.88-13.13c.88-1.75,1.75-1.75,2.63-1.75s1.75,0,2.63.88c4.38,2.63,8.75,4.38,14,6.13s10.5,2.63,15.75,2.63,8.75-.88,11.38-2.63,3.5-4.38,3.5-7.88-1.75-6.13-4.38-7.88-7.88-4.38-15.75-7c-11.38-4.38-20.13-8.75-26.26-14-6.13-5.25-9.63-13.13-9.63-21.88,0-11.38,4.38-19.25,12.25-25.38,7.88-6.13,18.38-8.75,31.51-8.75,9.63,0,17.5.88,23.63,2.63,7,1.75,12.25,4.38,16.63,7,1.75,1.75,2.63,2.63,2.63,4.38,0,.88,0,1.75-.88,2.63l-7.88,13.13c-.88,1.75-1.75,1.75-2.63,1.75s-1.75,0-2.63-.88c-6.13-4.38-14-6.13-23.63-6.13-5.25,0-8.75.88-11.38,2.63s-3.5,4.38-3.5,7.88c0,2.63.88,4.38,1.75,6.13,1.75,1.75,3.5,2.63,5.25,4.38,2.63.88,6.13,2.63,10.5,4.38l3.5.88c7.88,3.5,14.88,6.13,19.25,9.63,5.25,2.63,8.75,7,11.38,11.38s3.5,9.63,3.5,15.75c0,9.63-3.5,18.38-11.38,23.63-5.25,3.5-16.63,7-30.63,7Z"></path>
  <path class="cls-5" d="M1231.38,341.83c-1.75,0-2.63,0-3.5-.88-.88-.88-1.75-1.75-1.75-3.5l-21.88-72.64v-1.75c0-1.75.88-2.63,3.5-2.63h21.88c1.75,0,2.63,0,3.5.88q.88.88,1.75,2.63l8.75,38.51,11.38-30.63c.88-1.75.88-2.63,1.75-2.63.88-.88,1.75-.88,3.5-.88h10.5c1.75,0,2.63,0,3.5.88.88.88.88,1.75,1.75,2.63l11.38,30.63,9.63-38.51c0-.88.88-1.75,1.75-2.63.88-.88,1.75-.88,2.63-.88h22.75c2.63,0,3.5.88,3.5,2.63v1.75l-21.88,72.64c-.88,1.75-.88,2.63-1.75,3.5-.88.88-1.75.88-3.5.88h-16.63c-1.75,0-2.63,0-3.5-.88-.88-.88-1.75-1.75-1.75-3.5l-11.38-30.63-11.38,30.63c-.88,1.75-.88,2.63-1.75,3.5-.88.88-1.75.88-3.5.88h-19.25Z"></path>
  <path class="cls-5" d="M1367.9,344.46c-10.5,0-19.25-3.5-25.38-10.5-6.13-7-9.63-16.63-9.63-28.88,0-9.63,1.75-17.5,6.13-24.5,4.38-7,10.5-12.25,18.38-16.63,7.88-3.5,17.5-6.13,27.13-6.13,8.75,0,15.75.88,22.75,2.63,7,1.75,12.25,4.38,18.38,7.88v67.39c0,1.75,0,3.5-.88,4.38s-2.63.88-4.38.88h-17.5c-.88,0-1.75,0-2.63-.88s-.88-.88-1.75-1.75l-2.63-5.25c-3.5,3.5-7,6.13-11.38,7.88-4.38,2.63-9.63,3.5-16.63,3.5ZM1381.03,321.7c4.38,0,7.88-.88,10.5-3.5,2.63-1.75,3.5-5.25,3.5-8.75v-26.26c-1.75-.88-5.25-1.75-7.88-1.75-6.13,0-10.5,1.75-14,6.13-3.5,4.38-5.25,9.63-5.25,17.5-.88,10.5,3.5,16.63,13.13,16.63Z"></path>
  <path class="cls-5" d="M1449.29,375.96c-3.5,0-5.25-.88-7-1.75-.88-1.75-1.75-3.5-1.75-6.13v-96.27c5.25-3.5,11.38-7,19.25-8.75,7.88-2.63,15.75-3.5,23.63-3.5,34.13,0,50.76,14,50.76,42.88,0,13.13-3.5,23.63-10.5,31.51-7,7.88-17.5,11.38-30.63,11.38-3.5,0-7-.88-10.5-1.75s-6.13-1.75-8.75-3.5v28.01c0,2.63-.88,5.25-1.75,6.13-1.75,1.75-3.5,1.75-7,1.75h-15.75ZM1486.05,321.7c5.25,0,8.75-1.75,10.5-5.25,2.63-3.5,3.5-8.75,3.5-14.88,0-7-1.75-12.25-4.38-15.75-2.63-2.63-7-4.38-13.13-4.38-3.5,0-7,.88-8.75,1.75v26.25c0,3.5.88,7,3.5,8.75,1.75,2.63,5.25,3.5,8.75,3.5Z"></path>
  <path class="cls-2" d="M172.43,207.93c-3.5-17.5,10.5-34.13,28.01-34.13,15.75,0,28.88,13.13,28.88,28.88v35.01h23.63v-35.01c0-15.75,13.13-28.88,28.88-28.88,17.5,0,31.51,16.63,28.01,34.13l-7.88,41.13c26.26,11.38,46.38,31.51,46.38,56.89v14.88c0,21-14,38.51-33.26,49.88-19.25,12.25-45.51,19.25-74.39,19.25s-55.14-7-74.39-19.25c-19.25-11.38-33.26-28.88-33.26-49.88v-14.88c0-25.38,20.13-45.51,46.38-56.89l-7-41.13ZM292.32,255.19l8.75-48.13c2.63-12.25-7-23.63-19.25-23.63-11.38,0-20.13,8.75-20.13,20.13v44.63c-2.63,0-6.13-.88-8.75-.88h-11.38c-4.38,0-7.88,0-12.25.88-2.63,0-6.13.88-8.75.88v-44.63c0-11.38-8.75-20.13-20.13-20.13-12.25,0-21.88,11.38-19.25,23.63l8.75,49.01c-28.01,10.5-47.26,29.76-47.26,51.63v14.88c0,33.26,43.76,60.39,98.02,60.39s98.02-27.13,98.02-60.39v-14.88c.88-23.63-18.38-42.88-46.38-53.39Z"></path>
  <path class="cls-1" d="M339.58,321.7c0,33.26-43.76,60.39-98.02,60.39s-98.02-27.13-98.02-60.39v-14.88h196.91v14.88h-.88Z"></path>
  <path class="cls-4" d="M181.18,206.18c-2.63-12.25,7-23.63,19.25-23.63,11.38,0,20.13,8.75,20.13,20.13v45.51c7-.88,14-1.75,21-1.75s14,.88,20.13.88v-44.63c0-11.38,8.75-20.13,20.13-20.13,12.25,0,21.88,11.38,19.25,23.63l-8.75,48.13c28.88,10.5,48.13,29.76,48.13,51.63,0,33.26-43.76,60.39-98.02,60.39s-98.02-27.13-98.02-60.39c0-21.88,19.25-41.13,47.26-51.63l-10.5-48.13Z"></path>
  <path class="cls-3" d="M214.43,302.45c0,8.75-5.25,16.63-10.5,16.63s-10.5-7-10.5-16.63c0-8.75,5.25-16.63,10.5-16.63s10.5,7,10.5,16.63Z"></path>
  <path class="cls-3" d="M289.7,302.45c0,8.75-5.25,16.63-10.5,16.63-6.13,0-10.5-7-10.5-16.63,0-8.75,5.25-16.63,10.5-16.63s10.5,7,10.5,16.63Z"></path>
</svg>
