<?xml version="1.0" encoding="UTF-8"?>
<svg xmlns="http://www.w3.org/2000/svg" id="Layer_1" viewBox="0 0 1667.23 563.76">
  <defs>
    <style>.cls-1{fill:#119e5f;}.cls-2{fill:#fff;}.cls-3{fill:#92be8d;}.cls-4{fill:#333;}.cls-5{fill:#bed8bb;}</style>
  </defs>
  <rect class="cls-4" width="1667.23" height="563.76" rx="129.04" ry="129.04"></rect>
  <path class="cls-2" d="M537.88,336.37h19.11v-40.74h28.76c22.72,0,35.63-15.7,35.63-34.2s-12.75-34.19-35.63-34.19h-47.87v109.12ZM601.78,261.43c0,10.48-7.84,17.35-18.63,17.35h-26.15v-34.68h26.15c10.79,0,18.63,6.87,18.63,17.34ZM642.63,281.88c0,32.55,23.05,56.44,55.74,56.44s55.74-23.89,55.74-56.44-23.04-56.44-55.74-56.44-55.74,23.89-55.74,56.44ZM734.49,281.88c0,22.42-14.22,39.43-36.13,39.43s-36.12-17.01-36.12-39.43,14.05-39.43,36.12-39.43,36.13,16.85,36.13,39.43ZM782.73,336.37h67.18v-16.86h-48.05v-92.27h-19.12v109.12ZM867.53,281.88c0,32.55,23.04,56.44,55.74,56.44s55.74-23.89,55.74-56.44-23.04-56.44-55.74-56.44-55.74,23.89-55.74,56.44ZM959.39,281.88c0,22.42-14.23,39.43-36.13,39.43s-36.13-17.01-36.13-39.43,14.06-39.43,36.13-39.43,36.13,16.85,36.13,39.43ZM1083.64,336.37h18.47v-109.12h-19.12v77.38l-55.74-77.38h-19.61v109.12h19.12v-79.52l56.88,79.52ZM1135.48,336.37h19.13v-109.12h-19.11v109.12h-.02ZM1188,336.37h74.7v-16.86h-55.58v-30.26h54.43v-16.85h-54.43v-28.3h55.58v-16.85h-74.7v109.12ZM1365.45,336.37h22.88l-40.7-56.12,38.25-53.01h-23.05l-27.95,40.08-28.12-40.08h-22.88l38.41,53.17-40.86,55.96h22.88l30.56-42.7,30.56,42.7Z"></path>
  <path class="cls-1" d="M279.05,281.78l.11-101.58,43.9,25.47,43.91,25.42-43.96,25.37-43.96,25.31Z"></path>
  <path class="cls-1" d="M410.87,256.57l-43.91-25.47-.1,101.58,43.91,25.47,43.9,25.41.06-50.79.1-50.79-43.96-25.42Z"></path>
  <path class="cls-3" d="M366.96,231.1l-.1,101.58-43.91-25.42-43.91-25.47,43.96-25.31,43.96-25.37Z"></path>
  <path class="cls-5" d="M454.93,180.41l-.1,101.58-43.96-25.42-43.91-25.47,44.02-25.31,43.95-25.37Z"></path>
  <path class="cls-5" d="M278.95,332.56l.1-50.79,43.91,25.47,43.91,25.41-43.96,25.37-44.01,25.31.05-50.79Z"></path>
</svg>
