<?xml version="1.0" encoding="UTF-8"?>
<svg xmlns="http://www.w3.org/2000/svg" id="Layer_1" viewBox="0 0 256 256">
  <defs>
    <style>.cls-1{fill:#fff;}</style>
  </defs>
  <circle cx="128" cy="128" r="108.44"></circle>
  <path class="cls-1" d="M177.68,179.56c-2.07-2.78-4.15-5.56-6.23-8.33-2.62-3.5-5.26-6.99-7.89-10.49-1.86-2.47-3.71-4.95-5.57-7.43-2.3-3.07-4.62-6.13-6.91-9.21-1.83-2.45-3.63-4.91-5.46-7.36-3.42-4.56-6.85-9.11-10.26-13.66-2.45-3.27-4.87-6.56-7.33-9.82-3.77-5.01-7.58-10-11.35-15.02-2.48-3.3-4.91-6.63-7.39-9.93-3.37-4.49-6.76-8.96-10.13-13.45-2.16-2.87-4.32-5.73-6.42-8.65-.66-.91-1.42-1.25-2.51-1.23-2.93.04-5.87.02-8.8.02h0c-3.02,0-6.03,0-9.05,0-.21,0-.42-.02-.62.01-.53.09-.72.39-.53.87.08.19.21.35.33.52,1.78,2.38,3.57,4.75,5.36,7.13,2.33,3.1,4.68,6.19,7,9.3,1.68,2.25,3.32,4.52,5.01,6.77,2.52,3.37,5.07,6.72,7.6,10.08,1.91,2.54,3.8,5.09,5.71,7.63,1.78,2.38,3.59,4.74,5.37,7.12,2.65,3.54,5.28,7.08,7.92,10.62,1.65,2.22,3.31,4.43,4.97,6.64,1.36,1.82,2.72,3.63,4.09,5.44,1.15,1.51,2.32,3,3.46,4.52,1.87,2.51,3.7,5.06,5.58,7.57,2.55,3.4,5.16,6.75,7.71,10.15,2.35,3.14,4.65,6.31,6.99,9.46,2.32,3.11,4.67,6.2,7,9.3,2.85,3.8,5.7,7.59,8.52,11.4.7.96,1.54,1.37,2.73,1.34,2.52-.06,5.04-.02,7.56-.02,3.39,0,6.78.02,10.16.01.44,0,1.04.08,1.16-.45.07-.3-.24-.74-.46-1.05-2.43-3.28-4.88-6.55-7.32-9.83Z"></path>
  <path class="cls-1" d="M128,1.17C57.95,1.17,1.17,57.95,1.17,128s56.79,126.83,126.83,126.83,126.83-56.79,126.83-126.83S198.05,1.17,128,1.17ZM202.96,200.53c-.91.05-1.82,0-2.73,0-12.81,0-25.62-.02-38.43.02-1.25,0-2.07-.41-2.8-1.41-2.75-3.77-5.59-7.47-8.38-11.21-2.62-3.51-5.21-7.03-7.82-10.54-2.74-3.67-5.5-7.33-8.23-11.01-2.24-3.01-4.46-6.05-6.71-9.05-2.03-2.71-4.1-5.39-6.13-8.09-.97-1.28-1.91-2.59-2.86-3.89-.2-.27-.4-.53-.62-.77-.73-.8-.95-.8-1.67-.03-1.69,1.81-3.37,3.63-5.06,5.44-4.96,5.31-9.93,10.62-14.9,15.93-4.07,4.34-8.15,8.66-12.21,13.01-5.78,6.19-11.54,12.39-17.31,18.59-.73.79-1.49,1.54-2.22,2.33-.42.45-.92.67-1.54.67-3.35,0-6.69.03-10.04.02-.33,0-.65-.24-.97-.37.14-.33.2-.72.42-.97,1.45-1.59,2.93-3.14,4.4-4.7,2.63-2.8,5.25-5.61,7.87-8.41,2.15-2.29,4.3-4.58,6.44-6.87,4.31-4.62,8.6-9.25,12.92-13.87,3.92-4.2,7.85-8.38,11.78-12.56,4.27-4.54,8.55-9.08,12.82-13.62.71-.75,1.4-1.51,2.09-2.28.62-.69.63-.94.05-1.72-1.6-2.16-3.2-4.31-4.8-6.46-3.45-4.63-6.9-9.26-10.36-13.89-2.47-3.31-4.96-6.6-7.43-9.91-4.6-6.15-9.18-12.31-13.78-18.46-2.92-3.9-5.86-7.79-8.77-11.69-3.16-4.23-6.31-8.48-9.47-12.72-1.26-1.69-2.54-3.36-3.8-5.05-.26-.34-.82-.7-.44-1.14.23-.28.8-.36,1.22-.37,1.36-.04,2.73,0,4.09,0,12.23,0,24.46.01,36.7-.03,1.33,0,2.21.42,3,1.52,2.49,3.45,5.09,6.81,7.64,10.22,3.38,4.53,6.75,9.08,10.13,13.61,1.71,2.28,3.45,4.54,5.16,6.82,1.83,2.45,3.63,4.92,5.46,7.37,1.23,1.66,2.49,3.29,3.72,4.95,1.95,2.61,3.92,5.21,5.85,7.84,1.24,1.68,1.44,1.71,2.84.21,3.08-3.28,6.19-6.54,9.26-9.83,2.48-2.65,4.91-5.35,7.38-8.01,2.08-2.24,4.18-4.45,6.27-6.68,4.26-4.56,8.5-9.12,12.76-13.67,2.37-2.53,4.77-5.04,7.14-7.56,1.81-1.93,3.61-3.85,5.38-5.82.57-.64,1.22-.93,2.06-.93,3.22,0,6.45-.02,9.67,0,.42,0,.83.17,1.55.32-.82.91-1.39,1.55-1.98,2.18-4.37,4.68-8.75,9.35-13.12,14.03-4.03,4.32-8.06,8.63-12.08,12.96-3.21,3.45-6.4,6.91-9.61,10.35-3.89,4.17-7.8,8.31-11.7,12.48-2.71,2.89-5.41,5.79-8.11,8.7-.54.58-.55.89-.07,1.52,1.71,2.27,3.45,4.53,5.15,6.82,3.72,5,7.4,10.03,11.13,15.02,2.67,3.57,5.39,7.1,8.08,10.66,1.56,2.08,3.09,4.18,4.65,6.26,3.17,4.23,6.36,8.44,9.52,12.68,3.35,4.5,6.67,9.03,10.01,13.54,1.57,2.12,3.19,4.22,4.77,6.33,2.11,2.81,4.21,5.62,6.32,8.42.37.49.81.95,1.13,1.47.49.79.25,1.27-.67,1.32Z"></path>
</svg>
