<?xml version="1.0" encoding="UTF-8"?>
<svg xmlns="http://www.w3.org/2000/svg" id="Layer_1" viewBox="0 0 1667.23 563.76">
  <defs>
    <style>.cls-1{fill:#f0b90b;}.cls-2{fill:#1a1a1a;}</style>
  </defs>
  <rect class="cls-2" x="0" width="1667.23" height="563.76" rx="129.04" ry="129.04"></rect>
  <path id="path16" class="cls-1" d="M705.89,249.96v-.36c0-17.2-9.12-25.79-23.97-31.45,9.12-5.13,16.83-13.18,16.83-27.62v-.36c0-20.11-16.1-33.11-42.26-33.11h-59.39v128.03h60.89c28.89,0,47.94-11.7,47.94-35.12h-.05ZM670.77,195.23c0,9.51-7.87,13.55-20.3,13.55h-25.93v-27.02h27.8c11.88,0,18.47,4.74,18.47,13.16l-.05.32ZM677.91,246.45c0,9.51-7.5,13.89-19.95,13.89h-33.41v-28.12h32.54c14.46,0,20.87,5.31,20.87,13.91l-.05.32ZM765.07,285.08v-128.03h-28.26v128.03h28.26ZM916.48,285.08v-128.03h-27.89v78.84l-59.98-78.84h-25.98v128.03h27.8v-81.39l61.98,81.39h24.06ZM1072.49,285.08l-54.96-128.94h-25.98l-54.85,128.94h28.71l11.74-28.71h54.14l11.7,28.71h29.49ZM1021.29,231.49h-34.12l17.01-41.51,17.1,41.51ZM1206.74,285.08v-128.03h-27.89v78.84l-60-78.84h-25.95v128.03h27.78v-81.39l62.01,81.39h24.06ZM1352.13,264.42l-17.9-18.11c-10.06,9.12-19.02,14.98-33.66,14.98-21.94,0-37.13-18.24-37.13-40.23v-.36c0-21.94,15.55-39.86,37.13-39.86,12.79,0,22.81,5.47,32.75,14.44l17.86-20.66c-11.88-11.7-26.32-19.75-50.47-19.75-39.32,0-66.75,29.81-66.75,66.14v.36c0,36.76,27.98,65.84,65.66,65.84,24.65.07,39.27-8.71,52.43-22.78h.09ZM1472.31,285.08v-25.09h-69.6v-26.93h60.37v-25.09h-60.37v-25.86h68.6v-25.09h-96.58v128.03l97.58.02Z"></path>
  <rect class="cls-1" x="597.11" y="358.9" width="180.66" height="14.92"></rect>
  <path class="cls-1" d="M1271.27,320.6c25.27,3.4,34.6,33.23,17.09,51.22l-12.72,7.79,23.42,34.62h-18.04l-23.39-32.25c-.78-.58-18.46-1.04-19.38-.73-.56.19-1.6.93-1.6,1.28v31.7h-16.58v-93.63h51.2ZM1236.65,367.41h27.8c1.45,0,8.16-2.8,9.76-3.89,8.91-6.12,8.7-20.15-.57-25.78-.63-.38-5.93-2.51-6.27-2.51h-30.72v32.18Z"></path>
  <polygon class="cls-1" points="1387.82 320.6 1387.82 335.23 1334.18 335.23 1334.18 359.61 1381.96 359.61 1381.96 374.24 1334.18 374.24 1334.18 399.6 1387.82 399.6 1388.79 414.23 1317.6 414.23 1317.6 320.6 1387.82 320.6"></polygon>
  <path class="cls-1" d="M1133.27,320.6v60.95c0,2.97,4.63,11.26,6.93,13.55,9.55,9.52,30.18,7.46,37.16-4.57,1.07-1.85,3.7-9.21,3.7-10.93v-59h16.58c-2.79,34.08,13.28,91.32-36.7,95.45-19.96,1.65-44.25-10.84-44.25-33.52v-61.93h16.58Z"></path>
  <path class="cls-1" d="M943.09,320.6v59c0,.82,2.86,8.85,3.51,10.14,7.73,15.22,33.83,15.2,41.53-.21.46-.91,2.75-6.63,2.75-7v-61.93h16.58v60.95c0,.64-1.33,5.86-1.66,7.12-10.86,41.25-79.29,36.06-79.29-12v-56.08h16.58Z"></path>
  <path class="cls-1" d="M1463.87,343.03c-8.21-7.65-35.63-16.02-41.01-2.51-6.97,17.54,26.21,19.11,37.11,24.47,24.31,11.97,17.57,43.75-7.74,49.77-13.14,3.12-27.98.24-39.71-6.22-2.17-1.19-11.06-6.25-9.65-8.93.54-1.03,8.24-9.56,8.97-9.69,8.75,8.97,37.47,18.37,45.08,5.17,10.37-17.98-25.15-20.8-35.63-25.55-13.36-6.06-19.04-17.78-14.18-32.07,8.49-24.96,48.17-22.41,64.39-6.64l-7.64,12.2Z"></path>
  <polygon class="cls-1" points="909.93 320.6 909.93 335.23 856.29 335.23 856.29 361.56 904.08 361.56 904.08 376.19 856.29 376.19 856.29 414.23 839.71 414.23 839.71 320.6 909.93 320.6"></polygon>
  <polygon class="cls-1" points="1100.11 320.6 1100.11 335.23 1069.87 335.23 1069.87 414.23 1053.3 414.23 1052.81 335.23 1024.04 335.23 1024.04 320.6 1100.11 320.6"></polygon>
  <polygon class="cls-1" points="266.25 281.88 229.17 318.92 192.13 281.88 229.17 244.84 266.25 281.88"></polygon>
  <polygon class="cls-1" points="356.13 191.94 419.6 255.45 456.65 218.4 356.13 117.89 255.61 218.4 292.65 255.45 356.13 191.94"></polygon>
  <polygon class="cls-1" points="483.11 244.84 446.07 281.88 483.11 318.92 520.12 281.88 483.11 244.84"></polygon>
  <polygon class="cls-1" points="356.13 371.82 292.65 308.35 255.61 345.36 356.13 445.88 456.65 345.36 419.6 308.35 356.13 371.82"></polygon>
  <rect class="cls-1" x="329.93" y="255.69" width="52.38" height="52.38" transform="translate(-95.01 334.38) rotate(-45)"></rect>
</svg>
