<?xml version="1.0" encoding="UTF-8"?>
<svg xmlns="http://www.w3.org/2000/svg" id="Layer_1" viewBox="0 0 256 256">
  <defs>
    <style>.cls-1{fill:#f0b90b;}</style>
  </defs>
  <path class="cls-1" d="M128,1.17C57.95,1.17,1.17,57.95,1.17,128s56.79,126.83,126.83,126.83,126.83-56.79,126.83-126.83S198.05,1.17,128,1.17Z"></path>
  <g id="g18">
    <path id="path16" d="M78.49,128l-20.42,20.41-20.41-20.41,20.41-20.41,20.42,20.41ZM128,78.45l34.97,34.99,20.41-20.41-55.37-55.37-55.37,55.37,20.41,20.41,34.97-34.99ZM197.96,107.59l-20.41,20.41,20.41,20.41,20.39-20.41-20.39-20.41ZM128,177.55l-34.97-34.97-20.41,20.39,55.37,55.37,55.37-55.37-20.41-20.39-34.97,34.97ZM128,148.41l20.41-20.41-20.41-20.41-20.41,20.41,20.41,20.41Z"></path>
  </g>
</svg>
