<?xml version="1.0" encoding="UTF-8"?>
<svg xmlns="http://www.w3.org/2000/svg" id="Layer_1" viewBox="0 0 256 256">
  <defs>
    <style>.cls-1{fill:#262c35;}.cls-2{fill:#efe5c8;}.cls-3{fill:#fcd249;}</style>
  </defs>
  <path class="cls-2" d="M128,1.17C57.95,1.17,1.17,57.95,1.17,128s56.79,126.83,126.83,126.83,126.83-56.79,126.83-126.83S198.05,1.17,128,1.17Z"></path>
  <path class="cls-3" d="M212.04,146.61c-3.47,3.88-7.51,7.39-11.17,11.17-.11,14.12,2.05,27.82-10.53,37.38-12.59,9.56-20.54,5-32.01,5.45-9.93,8.85-16.69,20.17-32.01,19.16-13.48-.9-19.27-11.09-28.5-19.08-7.25-.78-15.2.86-22.26-.9-8.7-2.17-15.87-8.63-18.75-17.11-2.65-7.84-.75-16.36-1.53-24.54-8.96-10.08-19.94-16.43-19.08-31.75.75-13.41,10.98-19.76,19.16-28.76.45-12.51-2.2-23.75,6.91-33.84,9.82-10.87,22.33-8.4,35.63-8.7,10.46-9.93,16.99-20.24,33.31-18.82,12.03,1.05,18.45,11.32,26.59,18.71,12.62.63,23.86-2.09,34.17,6.87,10.91,9.45,8.66,23.12,8.89,36.08,7.21,8.22,17.44,14.34,18.75,26.22,1.01,9.3-1.61,15.69-7.58,22.41v.04ZM108.33,104.86c0-5.49-4.44-9.97-9.97-9.97s-9.97,4.44-9.97,9.97,4.44,9.97,9.97,9.97,9.97-4.44,9.97-9.97ZM145,95.08c-5.71.41-15.46,3.1-19.83,6.91-5.49,4.74-.3,13.82,7.39,10.98,4.29-1.57,7.1-4.15,12.32-4.63,8.4-.78,10.87,1.53,17.78,4.41,6.91,2.88,13.71-6.12,7.47-11.05-6.24-4.93-17.4-7.17-25.13-6.61ZM146.54,141.24c2.05.34,4.86-.26,7.02,0-4.11,15.91-22.11,24.35-37.05,16.99-7.36-3.59-12.85-10.79-14.42-18.82-.41-2.17-.15-4.26-.56-6.27-1.57-7.69-13.37-7.1-13.18,2.73.26,13.52,8.52,26.7,20.2,33.24,23.01,12.85,51.73.34,58.11-25.02,1.46-5.71,3.03-15.39-5.15-16.21-8.18-.82-11.05-.37-14.34,0-7.84.9-7.51,12.21-.63,13.37Z"></path>
  <path class="cls-1" d="M146.54,141.24c-6.87-1.12-7.21-12.47.63-13.37,3.29-.37,11.02-.34,14.34,0,8.18.82,6.57,10.53,5.15,16.21-6.39,25.36-35.11,37.87-58.11,25.02-11.69-6.54-19.94-19.72-20.2-33.24-.19-9.82,11.58-10.42,13.18-2.73.41,2.02.15,4.11.56,6.27,1.57,8.07,7.06,15.24,14.42,18.82,14.94,7.32,32.94-1.08,37.05-16.99-2.13-.26-4.97.34-7.02,0h0Z"></path>
  <path class="cls-1" d="M145,95.08c7.73-.56,18.94,1.72,25.13,6.61,6.2,4.89.67,14.42-7.47,11.05-8.14-3.36-9.37-5.19-17.78-4.41-5.23.49-8.03,3.03-12.32,4.63-7.69,2.84-12.88-6.24-7.39-10.98,4.37-3.81,14.12-6.5,19.83-6.91h0Z"></path>
  <circle class="cls-1" cx="98.36" cy="104.86" r="9.97"></circle>
</svg>
