<?xml version="1.0" encoding="UTF-8"?>
<svg xmlns="http://www.w3.org/2000/svg" id="Layer_1" viewBox="0 0 256 256">
  <defs>
    <style>.cls-1{fill:#fff;}.cls-2{fill:#33abe0;}</style>
  </defs>
  <circle class="cls-1" cx="128" cy="128" r="108.44"></circle>
  <path class="cls-2" d="M128,1.17C57.95,1.17,1.17,57.95,1.17,128s56.79,126.83,126.83,126.83,126.83-56.79,126.83-126.83S198.05,1.17,128,1.17ZM184.18,80.54l-21.29,100.29c-1.51,7.13-5.84,8.75-11.78,5.51l-52.31-38.58,60.3-54.14c2.59-2.38-.65-3.57-4.11-1.4l-74.24,46.79-32.1-10.05c-6.92-2.05-7.02-6.81,1.51-10.27l124.93-48.2c5.73-2.59,11.24,1.3,9.08,10.05Z"></path>
</svg>
